<svg id="Layer_1" data-name="Layer 1" xmlns="http://www.w3.org/2000/svg" xmlns:xlink="http://www.w3.org/1999/xlink" width="400" height="400" viewBox="0 0 400 400">
  <defs>
    <style>
      .cls-1 {
        fill: none;
      }

      .cls-2 {
        clip-path: url(#clip-path);
      }

      .cls-3 {
        fill: #243e90;
      }

      .cls-4 {
        fill: #ffcd05;
      }
    </style>
    <clipPath id="clip-path">
      <circle class="cls-1" cx="200" cy="200" r="175"/>
    </clipPath>
  </defs>
  <title>evropske-volby</title>
  <g class="cls-2">
    <g>
      <rect class="cls-3" x="25" y="25" width="350" height="350"/>
      <path class="cls-4" d="M91.93,116.1l4.82,14.7h15.42l-12.51,9.09,4.78,14.71-12.51-9.09L79.42,154.6l4.77-14.71L71.68,130.8H87.12Zm39.92-30.8H116.4l12.52,9.1-4.78,14.7L136.65,100l12.51,9.09-4.77-14.7,12.51-9.1H141.38L136.6,70.6Zm63.69-17.15H180.08l12.51,9.09-4.78,14.7,12.51-9.09,12.52,9.09-4.79-14.71,12.51-9.09H205.09l-4.77-14.7Zm63,17.23H243l12.51,9.09-4.79,14.71,12.51-9.09,12.51,9.09L271,94.48l12.51-9.1H268.05l-4.78-14.71Zm46.38,46.37H289.4l12.51,9.09-4.78,14.7,12.51-9.09,12.51,9.09-4.78-14.71,12.51-9.08H314.42L309.64,117ZM322,195.42H306.57l12.51,9.09-4.78,14.7,12.51-9.09,12.52,9.09-4.78-14.7,12.45-9.1H331.58l-4.77-14.7Zm-17.23,63.87H289.33l12.51,9.09-4.78,14.74L309.58,274l12.5,9.09-4.78-14.69,12.51-9.1H314.34l-4.77-14.71Zm-46.38,46H243l12.51,9.09-4.78,14.7L263.23,320l12.51,9.09L271,314.43l12.51-9.09H268l-4.78-14.71Zm-62.74,16.85H180.23l12.51,9.06L188,346l12.51-9.09L213,346l-4.78-14.7,12.51-9.09H205.25l-4.78-14.71ZM132,305H116.55l12.51,9.09-4.77,14.7,12.51-9.09,12.51,9.09-4.78-14.7L157,305H141.57l-4.78-14.71ZM86.59,259H71.13l12.49,9.09-4.77,14.7,12.51-9.09,12.51,9.09-4.77-14.7L111.62,259H96.15l-4.78-14.7Zm-17.45-64.6H53.53l12.59,9.18-4.83,14.88L74,209.24l12.6,9.14L81.77,203.5l12.64-9.18H78.79L74,179.45Z"/>
    </g>
  </g>
</svg>
