<svg id="Layer_1" data-name="Layer 1" xmlns="http://www.w3.org/2000/svg" xmlns:xlink="http://www.w3.org/1999/xlink" width="400" height="400" viewBox="0 0 400 400">
  <defs>
    <style>
      .cls-1 {
        fill: #fff;
      }

      .cls-2 {
        fill: #d72027;
      }

      .cls-3 {
        fill: #16467d;
      }
    </style>
    <symbol id="New_Symbol" data-name="New Symbol" viewBox="0 0 20 140">
      <polygon class="cls-1" points="20 20 20 60 0 40 0 0 20 20"/>
      <polygon class="cls-2" points="20 60 20 100 0 80 0 40 20 60"/>
      <polygon class="cls-3" points="20 100 20 140 0 120 0 80 20 100"/>
    </symbol>
  </defs>
  <title>icon-party</title>
  <g>
    <rect class="cls-3" x="276.92" y="67.14" width="13.98" height="13.98"/>
    <rect class="cls-1" x="109.1" y="318.87" width="13.98" height="13.98"/>
    <use width="20" height="140" transform="translate(109.1 67.14) scale(0.7)" xlink:href="#New_Symbol"/>
    <use width="20" height="140" transform="translate(109.1 151.05) scale(0.7)" xlink:href="#New_Symbol"/>
    <use width="20" height="140" transform="translate(276.92 67.14) scale(0.7)" xlink:href="#New_Symbol"/>
    <use width="20" height="140" transform="translate(276.92 151.05) scale(0.7)" xlink:href="#New_Symbol"/>
    <use width="20" height="140" transform="translate(109.1 234.96) scale(0.7)" xlink:href="#New_Symbol"/>
    <use width="20" height="140" transform="translate(276.92 234.96) scale(0.7)" xlink:href="#New_Symbol"/>
    <use width="20" height="140" transform="matrix(0, -0.7, -0.7, 0, 206.99, 81.13)" xlink:href="#New_Symbol"/>
    <use width="20" height="140" transform="matrix(0, -0.7, -0.7, 0, 290.9, 81.13)" xlink:href="#New_Symbol"/>
    <use width="20" height="140" transform="matrix(0, -0.7, -0.7, 0, 206.99, 332.86)" xlink:href="#New_Symbol"/>
    <use width="20" height="140" transform="matrix(0, -0.7, -0.7, 0, 290.9, 332.86)" xlink:href="#New_Symbol"/>
    <circle class="cls-3" cx="158.05" cy="137.07" r="13.98"/>
    <rect class="cls-2" x="193.01" y="130.08" width="55.94" height="13.98"/>
    <rect class="cls-2" x="193.01" y="151.05" width="41.95" height="13.98"/>
    <circle class="cls-3" cx="158.05" cy="193.01" r="13.98"/>
    <rect class="cls-2" x="193.01" y="186.02" width="55.94" height="13.98"/>
    <rect class="cls-2" x="193.01" y="206.99" width="27.97" height="13.98"/>
    <circle class="cls-3" cx="158.05" cy="248.95" r="13.98"/>
    <rect class="cls-2" x="193.01" y="241.95" width="55.94" height="13.98"/>
    <rect class="cls-2" x="193.01" y="262.93" width="41.95" height="13.98"/>
  </g>
</svg>
