<svg id="Layer_1" data-name="Layer 1" xmlns="http://www.w3.org/2000/svg" width="400" height="400" viewBox="0 0 400 400">
  <defs>
    <style>
      .cls-1 {
        fill: #d72027;
      }

      .cls-2 {
        fill: #16467d;
      }
    </style>
  </defs>
  <title>icon-election</title>
  <g>
    <path class="cls-1" d="M184.49,152.67c3.89-3.89,7.08-2.57,7.08,2.93V324.44a10.4,10.4,0,0,1-10,10.3l-7,.21a9.67,9.67,0,0,1-10-9.7V182.55c0-5.5,3.18-13.18,7.07-17.07Zm-56.62,97.15c-3.89,3.89-7.07,11.57-7.07,17.07v58.36a9.67,9.67,0,0,0,10,9.7l7-.21a10.4,10.4,0,0,0,10-10.3v-84.5c0-5.5-3.18-6.82-7.07-2.93Zm131.45-42.17c-3.89,3.89-7.07,11.57-7.07,17.07V325.25a9.68,9.68,0,0,0,10,9.7l7-.21a10.4,10.4,0,0,0,10-10.3V197.77c0-5.5-3.18-6.82-7.07-2.93Z"/>
    <path class="cls-2" d="M215.51,89.57c-3.89,3.89-7.08,11.57-7.08,17.07V325.25a9.68,9.68,0,0,0,10,9.7l7-.21a10.39,10.39,0,0,0,10-10.3V79.69c0-5.5-3.18-6.82-7.07-2.93Z"/>
  </g>
</svg>
