<svg xmlns="http://www.w3.org/2000/svg" xmlns:xlink="http://www.w3.org/1999/xlink" viewBox="0 0 400 400"><defs><style>.a{fill:url(#a);}.b{fill:url(#b);}.c{fill:#fff;}</style><radialGradient id="a" cx="-2618.65" cy="-468.86" r="231.52" gradientTransform="matrix(0, -1.98, -1.84, 0, -773.07, -4722.95)" gradientUnits="userSpaceOnUse"><stop offset="0" stop-color="#fd5"/><stop offset="0.1" stop-color="#fd5"/><stop offset="0.5" stop-color="#ff543e"/><stop offset="1" stop-color="#c837ab"/></radialGradient><radialGradient id="b" cx="-3063.49" cy="2115.47" r="231.52" gradientTransform="matrix(0.17, 0.87, 3.58, -0.72, -7153.46, 4180.34)" gradientUnits="userSpaceOnUse"><stop offset="0" stop-color="#3771c8"/><stop offset="0.13" stop-color="#3771c8"/><stop offset="1" stop-color="#60f" stop-opacity="0"/></radialGradient></defs><title>instagram</title><path class="a" d="M200.08-31.5c-96.68,0-124.95.1-130.45.56C49.79-29.3,37.45-26.17,24-19.48A92.44,92.44,0,0,0-2.61,0q-22,22.88-26.82,56.32c-1.57,10.83-2,13-2.12,68.34,0,18.44,0,42.7,0,75.24,0,96.6.11,124.84.57,130.33,1.6,19.31,4.63,31.45,11,44.74a97.55,97.55,0,0,0,63.22,51.65c9.55,2.46,20.09,3.81,33.62,4.45,5.73.25,64.18.43,122.67.43s117-.07,122.56-.36c15.67-.74,24.77-2,34.83-4.56a97,97,0,0,0,63.22-51.75c6.29-13,9.47-25.57,10.92-43.87.31-4,.45-67.59.45-131.11s-.14-127-.46-131c-1.46-18.59-4.65-31.09-11.14-44.31A91.78,91.78,0,0,0,400.15-2.62c-15.32-14.63-34.05-23.54-56.38-26.76-10.82-1.56-13-2-68.32-2.12Z"/><path class="b" d="M200.08-31.5c-96.68,0-124.95.1-130.45.56C49.79-29.3,37.45-26.17,24-19.48A92.44,92.44,0,0,0-2.61,0q-22,22.88-26.82,56.32c-1.57,10.83-2,13-2.12,68.34,0,18.44,0,42.7,0,75.24,0,96.6.11,124.84.57,130.33,1.6,19.31,4.63,31.45,11,44.74a97.55,97.55,0,0,0,63.22,51.65c9.55,2.46,20.09,3.81,33.62,4.45,5.73.25,64.18.43,122.67.43s117-.07,122.56-.36c15.67-.74,24.77-2,34.83-4.56a97,97,0,0,0,63.22-51.75c6.29-13,9.47-25.57,10.92-43.87.31-4,.45-67.59.45-131.11s-.14-127-.46-131c-1.46-18.59-4.65-31.09-11.14-44.31A91.78,91.78,0,0,0,400.15-2.62c-15.32-14.63-34.05-23.54-56.38-26.76-10.82-1.56-13-2-68.32-2.12Z"/><path class="c" d="M200,90c-29.87,0-33.62.13-45.36.66s-19.7,2.39-26.7,5.11a56.27,56.27,0,0,0-32.18,32.17c-2.73,7-4.58,15-5.11,26.7S90,170.13,90,200s.13,33.61.66,45.35S93.06,265,95.78,272a56.29,56.29,0,0,0,32.17,32.18c7,2.72,15,4.57,26.7,5.11s15.48.66,45.35.66,33.61-.13,45.35-.66,19.71-2.39,26.71-5.11A56.36,56.36,0,0,0,304.22,272c2.7-7,4.56-15,5.11-26.7S310,229.87,310,200s-.14-33.62-.66-45.36-2.41-19.7-5.11-26.7A56.28,56.28,0,0,0,272,95.78c-7-2.72-15-4.57-26.72-5.11S229.86,90,200,90Zm-9.87,19.82H200c29.37,0,32.85.11,44.45.63,10.72.49,16.55,2.28,20.42,3.79a36.45,36.45,0,0,1,20.87,20.88c1.51,3.87,3.3,9.69,3.79,20.42.53,11.6.64,15.08.64,44.44s-.11,32.84-.64,44.44c-.49,10.72-2.28,16.55-3.79,20.42a36.48,36.48,0,0,1-20.87,20.86c-3.87,1.51-9.7,3.3-20.42,3.79-11.6.53-15.08.64-44.45.64s-32.85-.11-44.45-.64c-10.72-.5-16.55-2.29-20.43-3.79a36.44,36.44,0,0,1-20.88-20.87c-1.51-3.87-3.3-9.69-3.79-20.42-.53-11.6-.63-15.08-.63-44.45s.11-32.84.63-44.44c.49-10.72,2.28-16.55,3.79-20.42a36.45,36.45,0,0,1,20.88-20.88c3.88-1.51,9.7-3.3,20.43-3.79,10.15-.46,14.08-.6,34.58-.62Zm68.58,18.26a13.2,13.2,0,1,0,13.2,13.2,13.2,13.2,0,0,0-13.2-13.2ZM200,143.51A56.48,56.48,0,1,0,256.49,200,56.49,56.49,0,0,0,200,143.51Zm0,19.82A36.67,36.67,0,1,1,163.34,200,36.67,36.67,0,0,1,200,163.33Z"/></svg>