<svg id="Layer_1" data-name="Layer 1" xmlns="http://www.w3.org/2000/svg" width="400" height="400" viewBox="0 0 400 400">
  <defs>
    <style>
      .cls-1 {
        fill: #16467d;
      }

      .cls-2 {
        fill: #d72027;
      }
    </style>
  </defs>
  <title>komunalni-volby</title>
  <g>
    <path class="cls-1" d="M153.33,66.67,120,135.76l6.33,5.6v192h17V304a4,4,0,0,1,4-4h12a4,4,0,0,1,4,4v29.33h17v-192l6.34-5.6Zm10,203.52a4,4,0,0,1-4,4h-12a4,4,0,0,1-4-4v-12a4,4,0,0,1,4-4h12a4,4,0,0,1,4,4Zm0-40a4,4,0,0,1-4,4h-12a4,4,0,0,1-4-4v-12a4,4,0,0,1,4-4h12a4,4,0,0,1,4,4Zm0-40a4,4,0,0,1-4,4h-12a4,4,0,0,1-4-4v-12a4,4,0,0,1,4-4h12a4,4,0,0,1,4,4Z"/>
    <path class="cls-2" d="M268.5,233.33a11.92,11.92,0,0,0-11.27-8.14h-3.35v-3.74h1.63v-4.21H244.16a14.41,14.41,0,0,0-28.32,0H204.49v4.21h1.63v3.74h-3.35a11.92,11.92,0,0,0-11.27,8.14H180v100h20V304a4,4,0,0,1,4-4h12a4,4,0,0,1,4,4v29.33h20V304a4,4,0,0,1,4-4h12a4,4,0,0,1,4,4v29.33h20v-100ZM220,270.19a4,4,0,0,1-4,4H204a4,4,0,0,1-4-4v-12a4,4,0,0,1,4-4h12a4,4,0,0,1,4,4Zm40,0a4,4,0,0,1-4,4H244a4,4,0,0,1-4-4v-12a4,4,0,0,1,4-4h12a4,4,0,0,1,4,4Z"/>
  </g>
</svg>
