<svg xmlns="http://www.w3.org/2000/svg" viewBox="0 0 400 400"><defs><style>.a{fill:#0077b5;}.b{fill:#fff;}</style></defs><title>linkedin</title><rect class="a" x="-4.5" y="-4.5" width="412.25" height="412.25"/><path class="a" d="M310.74,70H89.19A19,19,0,0,0,70,88.73V311.24A19,19,0,0,0,89.19,330H310.74A19,19,0,0,0,330,311.24V88.73C330,78.4,321.34,70,310.74,70Z"/><path class="b" d="M108.54,167.48h38.58V291.55H108.54Zm19.29-61.68a22.36,22.36,0,1,1-22.35,22.35,22.37,22.37,0,0,1,22.35-22.35"/><path class="b" d="M171.3,167.48h37v17h.53c5.15-9.75,17.73-20,36.49-20,39,0,46.23,25.69,46.23,59.11v68.06H253V231.22c0-14.39-.28-32.9-20-32.9-20.07,0-23.13,15.67-23.13,31.86v61.37H171.3Z"/></svg>