<svg id="Layer_1" data-name="Layer 1" xmlns="http://www.w3.org/2000/svg" xmlns:xlink="http://www.w3.org/1999/xlink" width="400" height="400" viewBox="0 0 400 400">
  <defs>
    <style>
      .cls-1, .cls-3 {
        fill: none;
      }

      .cls-2 {
        clip-path: url(#clip-path);
      }

      .cls-3 {
        stroke: #000;
        stroke-miterlimit: 10;
      }

      .cls-4 {
        fill: #d7141a;
      }

      .cls-5 {
        fill: #fff;
      }

      .cls-6 {
        fill: #11457e;
      }
    </style>
    <clipPath id="clip-path">
      <circle class="cls-1" cx="200.17" cy="199.99" r="200"/>
    </clipPath>
  </defs>
  <g class="cls-2">
    <g>
      <line class="cls-3" x1="164.82" y1="468.54" x2="235.53" y2="-68.57"/>
      <line class="cls-3" x1="235.53" y1="468.54" x2="164.82" y2="-68.57"/>
      <polygon class="cls-4" points="164.82 -68.57 200.17 199.99 235.53 -68.57 164.82 -68.57"/>
      <polygon class="cls-5" points="96.51 -50.27 200.17 199.99 164.82 -68.57 96.51 -50.27"/>
      <polygon class="cls-6" points="35.27 -14.91 200.17 199.99 96.51 -50.27 35.27 -14.91"/>
      <polygon class="cls-4" points="-14.73 35.09 200.17 199.99 35.27 -14.91 -14.73 35.09"/>
      <polygon class="cls-5" points="-50.08 96.33 200.17 199.99 -14.73 35.09 -50.08 96.33"/>
      <polygon class="cls-6" points="-68.38 164.63 200.17 199.99 -50.08 96.33 -68.38 164.63"/>
      <polygon class="cls-4" points="-68.38 235.34 200.17 199.99 -68.38 164.63 -68.38 235.34"/>
      <polygon class="cls-5" points="-50.08 303.65 200.17 199.99 -68.38 235.34 -50.08 303.65"/>
      <polygon class="cls-6" points="-14.73 364.88 200.17 199.99 -50.08 303.65 -14.73 364.88"/>
      <polygon class="cls-4" points="35.27 414.89 200.17 199.99 -14.73 364.88 35.27 414.89"/>
      <polygon class="cls-5" points="96.51 450.24 200.17 199.99 35.27 414.89 96.51 450.24"/>
      <polygon class="cls-6" points="164.82 468.54 200.17 199.99 96.51 450.24 164.82 468.54"/>
      <polygon class="cls-4" points="235.53 468.54 200.17 199.99 164.82 468.54 235.53 468.54"/>
      <polygon class="cls-5" points="303.83 450.24 200.17 199.99 235.53 468.54 303.83 450.24"/>
      <polygon class="cls-6" points="365.07 414.89 200.17 199.99 303.83 450.24 365.07 414.89"/>
      <polygon class="cls-4" points="415.07 364.88 200.17 199.99 365.07 414.89 415.07 364.88"/>
      <polygon class="cls-5" points="450.43 303.65 200.17 199.99 415.07 364.88 450.43 303.65"/>
      <polygon class="cls-6" points="468.73 235.34 200.17 199.99 450.43 303.65 468.73 235.34"/>
      <polygon class="cls-4" points="468.73 164.63 200.17 199.99 468.73 235.34 468.73 164.63"/>
      <polygon class="cls-5" points="450.43 96.33 200.17 199.99 468.73 164.63 450.43 96.33"/>
      <polygon class="cls-6" points="415.07 35.09 200.17 199.99 450.43 96.33 415.07 35.09"/>
      <polygon class="cls-4" points="365.07 -14.91 200.17 199.99 415.07 35.09 365.07 -14.91"/>
      <polygon class="cls-5" points="303.83 -50.27 200.17 199.99 365.07 -14.91 303.83 -50.27"/>
      <polygon class="cls-6" points="235.53 -68.57 200.17 199.99 303.83 -50.27 235.53 -68.57"/>
    </g>
    <circle class="cls-5" cx="200" cy="200" r="175"/>
  </g>
  <g>
    <path class="cls-6" d="M178.74,242h-49l23-20.8q16.8-15.4,23.2-26.2t6.4-25.6q0-37.8-42-37.8a137.94,137.94,0,0,0-40.6,6l1.4,21.4,4.8-.6a195.4,195.4,0,0,1,29.2-2.4q9,0,13.9,3.8t4.9,13.1a29.46,29.46,0,0,1-5.9,17.5q-5.9,8.21-20.9,23.6L98.9,242.6V266h91.3A75.84,75.84,0,0,1,178.74,242Z"/>
    <path class="cls-6" d="M211.6,148q12.9-16.4,38.3-16.4T288.2,148q12.9,16.4,12.9,52.7t-12.8,52q-12.81,15.71-38.4,15.7t-38.4-15.7q-12.8-15.7-12.8-52T211.6,148Zm61.1,52.1q0-24.71-5.2-34.6T250,155.6q-12.3,0-17.6,10t-5.3,34.6q0,24.6,5.4,34.4t17.6,9.8q12.2,0,17.4-9.8T272.7,200.1Z"/>
  </g>
</svg>
