<svg xmlns="http://www.w3.org/2000/svg" xmlns:xlink="http://www.w3.org/1999/xlink" viewBox="0 0 400 400"><defs><style>.a{fill:none;}.b{clip-path:url(#a);}.c{fill:#d7141a;}.d{fill:#fff;}.e{fill:#11457e;}.f{fill:#bc290e;}.g{fill:#035193;}.h{fill:#eace00;}</style><clipPath id="a"><circle class="a" cx="-220" cy="200" r="175"/></clipPath></defs><title>prezidentske-volby</title><g class="b"><polygon class="c" points="51.15 426.76 -412 426.76 -412 -25.62 -219.63 200.57 51.15 200 51.15 426.76"/></g><path class="d" d="M363.39,138.68c.68,1.6,1.16,3.28,1.74,4.92s1.14,3.29,1.65,5l1.43,5,.71,2.51c.23.84.4,1.7.6,2.54-1-.65-2-1.29-3-1.91l-3.11-1.81c-2.07-1.19-4.13-2.32-6.17-3.41-.48-1.57-1-3.11-1.55-4.67s-1-3.12-1.64-4.64c-1.23-3-2.33-6.13-3.76-9.09C354.74,134.7,359,136.62,363.39,138.68Z"/><path class="c" d="M369.52,158.63l1.18,5.09c.41,1.69.64,3.42,1,5.13s.64,3.42.89,5.14l.66,5.18q-2.81-2.29-5.6-4.44c-1.89-1.42-3.87-2.79-5.79-4.11a165.74,165.74,0,0,0-4.61-19.12c2,1.09,4.1,2.22,6.17,3.41l3.11,1.81C367.53,157.34,368.51,158,369.52,158.63Z"/><path class="e" d="M373.22,179.17l.33,2.59c.1.87.14,1.74.22,2.6l.39,5.21c.18,1.73.14,3.47.21,5.21l.13,5.22q-2.56-2.61-5.13-5.07c-1.73-1.64-3.36-3.24-5.19-4.77l-.37-4.91c-.07-.82-.11-1.64-.21-2.45l-.31-2.44-.62-4.89c-.23-1.62-.56-3.23-.84-4.85,1.92,1.32,3.9,2.69,5.79,4.11S371.35,177.64,373.22,179.17Z"/><path class="d" d="M324.29,77.55c2.39,2.54,4.86,5,7.09,7.67l3.41,4L338,93.28q-3.58-.52-7.08-.93c-2.38-.23-4.76-.4-7.08-.55-2.1-2.53-4.44-4.84-6.68-7.23-1.11-1.21-2.36-2.28-3.52-3.44s-2.36-2.29-3.59-3.37c2.35-.16,4.66-.19,7-.24S321.93,77.44,324.29,77.55Z"/><path class="c" d="M338,93.28l1.61,2c.53.69,1,1.41,1.53,2.12l3,4.25c1,1.42,1.9,2.92,2.85,4.37S349,109,349.8,110.5c-2.28-.67-4.68-1.2-7-1.73s-4.57-1-6.9-1.43l-2.85-4c-.49-.66-.94-1.35-1.44-2l-1.52-1.93-3-3.87-3.22-3.73c2.32.15,4.7.32,7.08.55S335.62,92.93,338,93.28Z"/><path class="e" d="M349.8,110.5c1.71,3,3.55,6,5.07,9.12l2.38,4.65,2.16,4.76q-3.36-1.36-6.66-2.59t-6.75-2.2c-1.43-3-3.17-5.75-4.78-8.61-.79-1.43-1.75-2.77-2.61-4.17s-1.74-2.78-2.69-4.12c2.33.4,4.57.91,6.9,1.43S347.52,109.83,349.8,110.5Z"/><path class="d" d="M263.75,37.57c1.61.65,3.25,1.24,4.84,2l4.76,2.15,2.38,1.08,2.32,1.19,4.65,2.38c-2.34.67-4.63,1.37-6.89,2.09l-3.34,1.09-3.33,1.24-4.48-2c-1.5-.66-3.05-1.22-4.57-1.83s-3-1.26-4.59-1.76l-4.66-1.58c2.06-1,4.18-2.1,6.34-3.13S261.51,38.5,263.75,37.57Z"/><path class="c" d="M282.7,46.32c1.53.82,3,1.72,4.54,2.58s3,1.69,4.49,2.66c2.92,1.89,5.9,3.7,8.7,5.78-4.72.64-9.46,1.68-14,2.72-1.37-.92-2.83-1.67-4.24-2.51s-2.83-1.66-4.28-2.43l-4.38-2.24-2.19-1.13-2.24-1,3.33-1.24,3.34-1.09C278.07,47.69,280.36,47,282.7,46.32Z"/><path class="e" d="M300.43,57.34c1.41,1,2.84,2,4.24,3l4.11,3.22,2.05,1.61c.67.56,1.32,1.14,2,1.7l3.94,3.42q-3.64.15-7.18.4c-1.18.08-2.34.16-3.51.27l-3.52.41-3.87-3c-1.32-1-2.67-1.91-4-2.86-2.63-2-5.44-3.66-8.19-5.45C291,59,295.71,58,300.43,57.34Z"/><path class="d" d="M192.17,25.7l5.22-.14L200,25.5l2.61.06,5.22.14c1.74,0,3.47.23,5.2.33-1.86,1.56-3.66,3-5.43,4.66s-3.47,3.25-5.14,4.87L200,35.5l-2.46.06-4.92.13c-1.65,0-3.28.22-4.92.32s-3.27.23-4.9.39c1.46-1.82,3-3.58,4.54-5.38S190.51,27.38,192.17,25.7Z"/><path class="c" d="M213,26c1.74.14,3.48.25,5.21.42l5.18.66c3.46.36,6.87,1.09,10.3,1.68-4.07,2.69-7.92,5.26-11.63,8.23l-4.89-.62c-1.63-.16-3.27-.26-4.9-.39s-3.27-.31-4.92-.32l-4.92-.13c1.67-1.62,3.38-3.25,5.14-4.87S211.17,27.59,213,26Z"/><path class="e" d="M233.72,28.79c1.72.26,3.4.73,5.1,1.1s3.4.77,5.09,1.19l5,1.42c1.68.47,3.36.94,5,1.53-2.15,1-4.29,2.13-6.39,3.27s-4.13,2.3-6.13,3.46c-1.59-.4-3.2-.74-4.79-1.12s-3.19-.79-4.81-1c-3.24-.54-6.45-1.25-9.71-1.58C225.8,34.05,229.65,31.48,233.72,28.79Z"/><path class="d" d="M122,43.94l2.32-1.19,2.38-1.08,4.76-2.15c1.59-.71,3.23-1.3,4.84-2s3.22-1.33,4.88-1.86c-1.1,2.1-2.08,4.36-3,6.51s-1.9,4.29-2.74,6.49l-4.48,2-2.24,1-2.19,1.13-4.38,2.24c-1.45.77-2.86,1.63-4.28,2.43.59-2.25,1.2-4.57,1.9-6.83S121.14,46.22,122,43.94Z"/><path class="c" d="M141.13,35.71c3.31-1.09,6.57-2.33,9.94-3.21l5-1.42c1.69-.42,3.39-.79,5.09-1.19-1.33,2-2.61,4-3.83,6s-2.37,4.14-3.48,6.18c-3.18.83-6.25,2-9.37,3-1.56.5-3.06,1.18-4.59,1.76s-3.07,1.17-4.57,1.83c.84-2.2,1.78-4.3,2.74-6.49S140,37.81,141.13,35.71Z"/><path class="e" d="M161.18,29.89a178.85,178.85,0,0,1,20.58-3.44c-1.55,1.88-3.06,3.75-4.51,5.61s-2.87,3.71-4.2,5.68c-3.23.58-6.48,1.09-9.66,1.9-1.59.38-3.2.72-4.79,1.12l-4.73,1.34c1.11-2,2.27-4.11,3.48-6.18S159.85,31.91,161.18,29.89Z"/><path class="d" d="M65.21,89.17A181.71,181.71,0,0,1,79.44,73.91c-.26,4.76-.18,9.58,0,14.23-1.16,1.16-2.21,2.42-3.29,3.66l-3.22,3.73-3,3.87-1.52,1.93c-.5.65-1,1.34-1.44,2-.19-1.15-.4-2.34-.56-3.5l-.43-3.49C65.67,94,65.42,91.6,65.21,89.17Z"/><path class="c" d="M79.44,73.91A178.15,178.15,0,0,1,95.33,60.38q-.56,3.6-1,7.13L93.94,71c-.11,1.18-.2,2.37-.28,3.54l-3.72,3.22c-1.23,1.08-2.39,2.25-3.59,3.37-2.42,2.22-4.65,4.63-6.91,7C79.26,83.49,79.18,78.67,79.44,73.91Z"/><path class="e" d="M95.33,60.38A176.42,176.42,0,0,1,112.76,48.9c-1.39,4.56-2.44,9.28-3.37,13.82-1.4.85-2.71,1.85-4,2.79s-2.69,1.89-4,2.86l-3.87,3-1.93,1.52c-.64.53-1.25,1.08-1.87,1.61.08-1.17.17-2.36.28-3.54l.4-3.49Q94.78,64,95.33,60.38Z"/><path class="d" d="M31.79,153.58l1.43-5c.51-1.67,1.1-3.31,1.65-5,1.05-3.32,2.38-6.54,3.66-9.78,1.81,4.51,3.63,8.8,5.8,13-.51,1.56-1.07,3.1-1.55,4.67l-1.35,4.73-.67,2.37c-.21.79-.38,1.6-.57,2.39l-1.1,4.8c-1.27-1.94-2.52-3.94-3.76-6-.61-1-1.25-2.05-1.83-3.09Z"/><path class="c" d="M38.53,133.82c.6-1.63,1.35-3.21,2.06-4.79l2.16-4.76,2.38-4.65c.79-1.55,1.57-3.1,2.47-4.6.56,2.31,1.25,4.63,2,6.91s1.44,4.5,2.19,6.69a171.1,171.1,0,0,0-7.42,18.21C42.16,142.62,40.34,138.33,38.53,133.82Z"/><path class="e" d="M47.6,115l2.6-4.52c.85-1.52,1.85-3,2.77-4.43s1.84-2.95,2.85-4.37l3-4.25q.51,3.58,1.1,7.07c.4,2.32.94,4.67,1.44,6.94a172.8,172.8,0,0,0-9.64,17.16q-1.12-3.28-2.19-6.69C48.85,119.65,48.16,117.33,47.6,115Z"/><path class="d" d="M27.44,226a178.9,178.9,0,0,1-1.81-20.79c3.35,3.38,7,6.55,10.56,9.53.07.82.11,1.64.21,2.45l.31,2.44.62,4.89c.23,1.62.56,3.23.84,4.85s.52,3.24.92,4.83c-2-1.25-3.88-2.58-5.84-4S29.34,227.48,27.44,226Z"/><path class="c" d="M25.63,205.22,25.5,200l.13-5.22c0-3.48.34-6.95.6-10.42,3.06,3.77,6.07,7.33,9.4,10.72L35.5,200l.13,4.92c0,3.29.32,6.56.56,9.83C32.63,211.77,29,208.6,25.63,205.22Z"/><path class="e" d="M26.23,184.36c.08-.86.12-1.73.22-2.6l.33-2.59.66-5.18c.25-1.72.59-3.43.89-5.14s.56-3.44,1-5.13c1.22,2,2.63,4.06,3.95,6s2.67,3.86,4.08,5.73a169.36,169.36,0,0,0-1.7,19.61C32.3,191.69,29.29,188.13,26.23,184.36Z"/><path class="d" d="M53,293.93a180.29,180.29,0,0,1-10.22-18.2q3.44,1.25,6.81,2.34c2.25.74,4.46,1.44,6.77,2l2.45,4.27c.79,1.43,1.75,2.77,2.61,4.17s1.74,2.78,2.69,4.12l2.85,4c-2.29-.36-4.62-.75-7-1.19S55.33,294.48,53,293.93Z"/><path class="c" d="M42.75,275.73a180,180,0,0,1-7.88-19.33c4.2,2.24,8.63,4.19,12.91,6,.57,1.54,1.27,3,1.95,4.52l2,4.48L54,275.76c.74,1.47,1.48,2.93,2.33,4.34-2.31-.59-4.52-1.29-6.77-2S45,276.56,42.75,275.73Z"/><path class="e" d="M34.87,256.4c-.55-1.65-1.14-3.29-1.65-5l-1.43-5-.71-2.51c-.23-.84-.4-1.7-.6-2.54l-1.18-5.09q3,2,6,3.91c1,.62,2,1.24,3,1.84l3.09,1.74,1.35,4.73c.48,1.57,1,3.11,1.55,4.67,1,3.13,2.25,6.16,3.45,9.21C43.5,260.59,39.07,258.64,34.87,256.4Z"/><path class="d" d="M103.87,345.62c-1.48-.91-2.87-2-4.3-3s-2.84-2-4.24-3l-4.11-3.22-2-1.61c-.67-.56-1.32-1.14-2-1.7,1.2-.07,2.38-.14,3.57-.23l3.58-.37c2.37-.26,4.7-.54,7-.86a171.92,171.92,0,0,0,16.44,10.82C113.22,343.76,108.65,344.71,103.87,345.62Z"/><path class="c" d="M87.19,333.09l-3.94-3.42c-1.31-1.15-2.54-2.39-3.81-3.58-2.56-2.35-4.93-4.9-7.33-7.42,4.84.25,9.52.39,14.24.2a171.86,171.86,0,0,0,15,12.76c-2.29.32-4.62.6-7,.86l-3.58.37C89.57,333,88.39,333,87.19,333.09Z"/><path class="e" d="M72.11,318.67c-1.23-1.24-2.34-2.58-3.49-3.89l-3.41-3.95L62,306.72l-1.61-2.05c-.53-.69-1-1.41-1.53-2.12,1.18.22,2.34.44,3.52.62l3.57.49q3.54.46,7,.81a172.33,172.33,0,0,0,13.42,14.4C81.63,319.06,77,318.92,72.11,318.67Z"/><path class="d" d="M171.42,372.13c-3.43-.62-6.87-1.17-10.24-2-1.7-.4-3.4-.77-5.09-1.19l-5-1.42q3.21-1.69,6.28-3.42c2.05-1.2,4.08-2.47,6-3.72a169.73,169.73,0,0,0,19.41,3.24q-2.7,2.17-5.55,4.34C175.35,369.38,173.4,370.83,171.42,372.13Z"/><path class="c" d="M151.07,367.5c-3.37-.88-6.63-2.12-9.94-3.21-1.66-.53-3.25-1.24-4.88-1.86s-3.25-1.24-4.84-1.95c2.24-.83,4.49-1.78,6.67-2.7s4.3-1.83,6.42-2.9c3.12,1,6.19,2.19,9.37,3l4.73,1.34c1.59.4,3.2.74,4.79,1.12-2,1.25-4,2.52-6,3.72S153.21,366.37,151.07,367.5Z"/><path class="e" d="M131.41,360.48l-4.76-2.15-2.38-1.08L122,356.06l-4.65-2.38c-1.53-.82-3-1.72-4.54-2.58,2.35-.58,4.63-1.15,6.91-1.82s4.55-1.42,6.76-2.16l2.19,1.13,2.24,1,4.48,2c1.5.66,3,1.22,4.57,1.83s3,1.26,4.59,1.76c-2.12,1.07-4.23,1.94-6.42,2.9S133.65,359.65,131.41,360.48Z"/><path class="d" d="M243.91,368.92c-1.69.42-3.39.79-5.09,1.19s-3.38.84-5.1,1.1c-3.43.59-6.84,1.32-10.3,1.68,3-3.66,5.78-7.68,8.38-11.49,1.62-.25,3.21-.69,4.81-1s3.2-.72,4.79-1.12l4.73-1.34c1.58-.44,3.16-.89,4.71-1.44-1,2.14-2.15,4.18-3.31,6.24S245.17,366.83,243.91,368.92Z"/><path class="c" d="M223.42,372.89l-5.18.66c-1.73.17-3.47.28-5.21.42s-3.46.32-5.2.33l-5.22.14c1.71-1.71,3.38-3.42,5-5.13s3.18-3.56,4.7-5.32c1.63-.13,3.27-.23,4.9-.39l4.89-.62c3.26-.33,6.47-1,9.71-1.58C229.2,365.21,226.44,369.23,223.42,372.89Z"/><path class="e" d="M202.61,374.44l-2.61.06-2.61-.06-5.22-.14c-1.74,0-3.47-.23-5.2-.33s-3.48-.25-5.21-.42c1.91-1.49,3.77-3.05,5.58-4.57s3.56-3,5.28-4.67l4.92.13,2.46.06,2.46-.06,4.92-.13c1.65,0,3.28-.22,4.92-.32-1.52,1.76-3.08,3.64-4.7,5.32S204.32,372.73,202.61,374.44Z"/><path class="d" d="M308.78,336.4l-4.11,3.22c-1.4,1-2.83,2-4.24,3-2.8,2.08-5.78,3.89-8.7,5.78,1.17-4.73,2.22-9.26,2.93-13.95,1.34-.95,2.69-1.89,4-2.86l3.87-3,1.93-1.52c.64-.53,1.25-1.08,1.87-1.61l3.72-3.22c-.13,2.31-.29,4.66-.49,7-.1,1.19-.2,2.4-.33,3.59Z"/><path class="c" d="M291.73,348.44c-1.45,1-3,1.78-4.49,2.66s-3,1.76-4.54,2.58l-4.65,2.38-2.32,1.19-2.38,1.08,1.29-3.33,1.17-3.41c.76-2.26,1.48-4.5,2.14-6.71,1.45-.77,2.86-1.63,4.28-2.43s2.87-1.59,4.24-2.51c2.75-1.79,5.56-3.49,8.19-5.45C294,339.18,292.9,343.71,291.73,348.44Z"/><path class="e" d="M273.35,358.33l-4.76,2.15c-1.59.71-3.23,1.3-4.84,1.95s-3.22,1.33-4.88,1.86l-5,1.68c1.14-2.15,2.23-4.27,3.26-6.38s2-4.34,2.91-6.47c1.52-.61,3.07-1.17,4.57-1.83l4.48-2,2.24-1,2.19-1.13,4.38-2.24c-.66,2.21-1.38,4.45-2.14,6.71L274.64,355Z"/><path class="d" d="M354.87,280.38c-1.52,3.13-3.36,6.09-5.07,9.12C349,291,348,292.45,347,293.93s-1.84,2.95-2.85,4.37c-.37-2.36-.88-4.76-1.36-7.07s-1-4.57-1.6-6.86c1.61-2.86,3.35-5.65,4.78-8.61l2.25-4.38,2-4.48c.85,2.17,1.68,4.4,2.48,6.66S354.19,278.06,354.87,280.38Z"/><path class="c" d="M344.18,298.3l-3,4.25c-.51.71-1,1.43-1.53,2.12L338,306.72l-3.22,4.11-3.41,3.95c-.12-2.41-.26-4.78-.45-7.13s-.52-4.74-.82-7l1.52-1.93c.5-.65.95-1.34,1.44-2l2.85-4c.95-1.34,1.79-2.75,2.69-4.12s1.82-2.74,2.61-4.17c.64,2.29,1.09,4.53,1.6,6.86S343.81,295.94,344.18,298.3Z"/><path class="e" d="M331.38,314.78c-2.23,2.68-4.7,5.13-7.09,7.67-1.17,1.28-2.49,2.42-3.73,3.64s-2.5,2.43-3.81,3.58c.2-2.39.27-4.83.35-7.19s.15-4.67.07-7.05c2.24-2.39,4.58-4.7,6.68-7.23l3.22-3.73,3-3.87q.45,3.47.82,7C331.12,310,331.26,312.37,331.38,314.78Z"/><path class="d" d="M374.16,210.43l-.39,5.21c-.08.86-.12,1.73-.22,2.6l-.33,2.59-.66,5.18c-.25,1.72-.59,3.43-.89,5.14-1.34-2-2.65-4-4.05-5.88s-2.88-3.8-4.33-5.63l.31-2.44c.1-.81.14-1.63.21-2.45l.37-4.91c.17-1.63.13-3.28.19-4.92l.13-4.92c1.62,1.64,3.25,3.33,4.87,5.07S372.67,208.6,374.16,210.43Z"/><path class="c" d="M371.67,231.15a176.74,176.74,0,0,1-4.89,20.29q-1.68-3.24-3.39-6.35L361.66,242c-.59-1-1.23-2-1.85-3l1.1-4.8c.4-1.59.61-3.22.92-4.83s.61-3.23.84-4.85l.62-4.89c1.45,1.83,2.89,3.7,4.33,5.63S370.33,229.14,371.67,231.15Z"/><path class="e" d="M366.78,251.44c-.51,1.67-1.1,3.31-1.65,5s-1.06,3.31-1.74,4.92c-1.3,3.23-2.48,6.51-4,9.65-1.54-4.5-3.49-9-5.38-13.16.64-1.52,1.09-3.1,1.64-4.64s1.07-3.1,1.55-4.67l1.35-4.73.67-2.37c.21-.79.38-1.6.57-2.39.62,1,1.26,2,1.85,3l1.73,3.06Q365.1,248.2,366.78,251.44Z"/><rect class="f" x="130" y="106" width="70" height="75"/><rect class="g" x="200" y="106" width="70" height="75"/><rect class="h" x="130" y="181" width="70" height="75"/><rect class="f" x="200" y="181" width="70" height="75"/><path class="f" d="M298.87,265,235,289a98.29,98.29,0,0,1-70,0l-63.85-24L96,285l69,34.86a98.4,98.4,0,0,0,70,0L304,285Z"/><path class="h" d="M299.25,241.71A15.92,15.92,0,0,1,311,231.08l7.36,12L340,221.77l-29.12-8.86-1,15.34a18.7,18.7,0,0,0-9.6,5.84,78.34,78.34,0,0,1,14.93-33.18c10-13,7.39-27.21.75-37.73l6.56-12.68L293,143l7.5,29.5,13.45-7c10.11,16.31,1.9,29.57-1.14,33.55a84.89,84.89,0,0,0-7.44,11.55,18.62,18.62,0,0,0-4-8.44l7.09-13.7L279,181l7.5,29.5L299,204a15.44,15.44,0,0,1,3.51,12.17l.12,0c-7.47,17-10.65,40.22.45,69.81l2.8-1.06c-6.17-16.46-7.79-30.87-6.68-43.27Z"/><path class="h" d="M113.51,210.5,121,181l-29.5,7.5,7.08,13.7a18.73,18.73,0,0,0-4,8.44,83.92,83.92,0,0,0-7.43-11.55c-3-4-11.26-17.24-1.15-33.55l13.46,7L107,143l-29.5,7.5,6.55,12.68c-6.63,10.52-9.22,24.69.75,37.73a78.16,78.16,0,0,1,14.94,33.18,18.7,18.7,0,0,0-9.6-5.84l-1-15.34L60,221.77l21.69,21.35,7.37-12a16.05,16.05,0,0,1,11.7,10.62h0c1.1,12.4-.51,26.81-6.69,43.27L96.91,286c11.1-29.59,7.92-52.81.44-69.81l.12,0A15.66,15.66,0,0,1,101,204Z"/><polygon class="h" points="200 266 200 256 190 256 200 266"/><polygon class="f" points="200 266 210 256 200 256 200 266"/></svg>