<?xml version="1.0" encoding="utf-8"?>
<!-- Generator: Adobe Illustrator 24.0.3, SVG Export Plug-In . SVG Version: 6.00 Build 0)  -->
<svg version="1.1" id="Layer_1" xmlns="http://www.w3.org/2000/svg" xmlns:xlink="http://www.w3.org/1999/xlink" x="0px" y="0px"
	 viewBox="0 0 400 400" style="enable-background:new 0 0 400 400;" xml:space="preserve">
<style type="text/css">
	.st0{clip-path:url(#SVGID_2_);fill:#EEEEEE;}
	.st1{clip-path:url(#SVGID_4_);fill:#BC290E;}
	.st2{clip-path:url(#SVGID_6_);fill:#035193;}
</style>
<title>senatni-volby</title>
<g>
	<defs>
		<polygon id="SVGID_1_" points="56.9,76.3 79.1,132.6 147.2,128.8 212.2,299.5 212.2,323.7 200,333.7 200,349.1 215.7,355.2 
			222.3,380.8 131.4,380.9 16.8,269.8 12.9,143.7 		"/>
	</defs>
	<clipPath id="SVGID_2_">
		<use xlink:href="#SVGID_1_"  style="overflow:visible;"/>
	</clipPath>
	<path class="st0" d="M200,44.8c-5.5,0-10-4.5-10-10s4.5-10,10-10s10,4.5,10,10S205.5,44.8,200,44.8z M175.4,36.3
		c-1.1-5.4-6.5-8.9-11.9-7.7s-8.9,6.5-7.7,11.9s6.5,8.9,11.9,7.7S176.6,41.7,175.4,36.3z M141.9,45c-2.2-5-8.2-7.3-13.2-5.1
		c-5,2.2-7.3,8.2-5.1,13.2s8.2,7.3,13.2,5.1C141.9,55.9,144.2,50,141.9,45z M111,60.5c-3.2-4.5-9.5-5.5-14-2.2
		c-4.5,3.2-5.5,9.5-2.2,14c3.2,4.5,9.5,5.5,14,2.2C113.2,71.2,114.2,64.9,111,60.5z M83.9,82c-4.1-3.7-10.4-3.4-14.1,0.7
		c-3.7,4.1-3.4,10.4,0.7,14.1c4.1,3.7,10.4,3.4,14.1-0.7C88.3,92,88,85.7,83.9,82z M61.9,108.7c-4.8-2.8-10.9-1.1-13.7,3.7
		c-2.8,4.8-1.1,10.9,3.7,13.7s10.9,1.1,13.7-3.7C68.3,117.6,66.7,111.5,61.9,108.7z M46,139.4c-5.3-1.7-10.9,1.2-12.6,6.4
		c-1.7,5.3,1.2,10.9,6.4,12.6s10.9-1.2,12.6-6.4C54.1,146.8,51.2,141.1,46,139.4z M36.7,172.8c-5.5-0.6-10.4,3.4-11,8.9
		c-0.6,5.5,3.4,10.4,8.9,11c5.5,0.6,10.4-3.4,11-8.9C46.2,178.3,42.2,173.4,36.7,172.8z M34.6,207.3c-5.5,0.6-9.5,5.5-8.9,11
		c0.6,5.5,5.5,9.5,11,8.9c5.5-0.6,9.5-5.5,8.9-11C45,210.7,40.1,206.7,34.6,207.3z M39.8,241.5c-5.3,1.7-8.1,7.3-6.4,12.6
		c1.7,5.3,7.3,8.1,12.6,6.4c5.3-1.7,8.1-7.3,6.4-12.6C50.7,242.7,45,239.8,39.8,241.5z M51.9,274c-4.8,2.8-6.4,8.9-3.7,13.7
		c2.8,4.8,8.9,6.4,13.7,3.7c4.8-2.8,6.4-8.9,3.7-13.7C62.8,272.8,56.7,271.2,51.9,274z M70.5,303.1c-4.1,3.7-4.4,10-0.7,14.1
		c3.7,4.1,10,4.4,14.1,0.7c4.1-3.7,4.4-10,0.7-14.1C81,299.8,74.6,299.4,70.5,303.1z M94.8,327.8c-3.2,4.5-2.3,10.7,2.2,14
		s10.7,2.3,14-2.2s2.3-10.7-2.2-14S98,323.3,94.8,327.8z M123.7,346.9c-2.2,5,0,11,5.1,13.2c5,2.2,11,0,13.2-5.1
		c2.2-5,0-11-5.1-13.2C131.8,339.6,125.9,341.8,123.7,346.9z M155.9,359.5c-1.1,5.4,2.3,10.7,7.7,11.9c5.4,1.1,10.7-2.3,11.9-7.7
		c1.1-5.4-2.3-10.7-7.7-11.9S157,354.1,155.9,359.5z M190,365.2c0,5.5,4.5,10,10,10s10-4.5,10-10c0-5.5-4.5-10-10-10
		S190,359.7,190,365.2z M224.6,363.7c1.1,5.4,6.5,8.9,11.9,7.7c5.4-1.1,8.9-6.5,7.7-11.9s-6.5-8.9-11.9-7.7S223.4,358.3,224.6,363.7
		z M258.1,355c2.2,5,8.2,7.3,13.2,5.1c5-2.2,7.3-8.2,5.1-13.2c-2.2-5-8.2-7.3-13.2-5.1C258.1,344.1,255.8,350,258.1,355z M289,339.5
		c3.2,4.5,9.5,5.5,14,2.2s5.5-9.5,2.2-14s-9.5-5.5-14-2.2S285.8,335.1,289,339.5z M316.1,318c4.1,3.7,10.4,3.4,14.1-0.7
		c3.7-4.1,3.4-10.4-0.7-14.1c-4.1-3.7-10.4-3.4-14.1,0.7C311.7,308,312,314.3,316.1,318z M338.1,291.3c4.8,2.8,10.9,1.1,13.7-3.7
		c2.8-4.8,1.1-10.9-3.7-13.7s-10.9-1.1-13.7,3.7C331.7,282.4,333.3,288.5,338.1,291.3z M354,260.6c5.3,1.7,10.9-1.2,12.6-6.4
		c1.7-5.3-1.2-10.9-6.4-12.6s-10.9,1.2-12.6,6.4C345.9,253.2,348.8,258.9,354,260.6z M363.3,227.2c5.5,0.6,10.4-3.4,11-8.9
		c0.6-5.5-3.4-10.4-8.9-11c-5.5-0.6-10.4,3.4-11,8.9C353.8,221.7,357.8,226.6,363.3,227.2z M365.4,192.7c5.5-0.6,9.5-5.5,8.9-11
		c-0.6-5.5-5.5-9.5-11-8.9c-5.5,0.6-9.5,5.5-8.9,11C355,189.3,359.9,193.3,365.4,192.7z M360.2,158.5c5.3-1.7,8.1-7.3,6.4-12.6
		c-1.7-5.3-7.3-8.1-12.6-6.4c-5.3,1.7-8.1,7.3-6.4,12.6C349.3,157.3,355,160.2,360.2,158.5z M348.1,126c4.8-2.8,6.4-8.9,3.7-13.7
		c-2.8-4.8-8.9-6.4-13.7-3.7c-4.8,2.8-6.4,8.9-3.7,13.7C337.2,127.2,343.3,128.8,348.1,126z M329.5,96.9c4.1-3.7,4.4-10,0.7-14.1
		c-3.7-4.1-10-4.4-14.1-0.7c-4.1,3.7-4.4,10-0.7,14.1C319,100.2,325.4,100.6,329.5,96.9z M305.2,72.2c3.2-4.5,2.3-10.7-2.2-14
		c-4.5-3.2-10.7-2.3-14,2.2s-2.3,10.7,2.2,14C295.7,77.7,302,76.7,305.2,72.2z M276.3,53.1c2.2-5,0-11-5.1-13.2
		c-5-2.2-11,0-13.2,5.1c-2.2,5,0,11,5.1,13.2C268.2,60.4,274.1,58.2,276.3,53.1z M244.1,40.5c1.1-5.4-2.3-10.7-7.7-11.9
		s-10.7,2.3-11.9,7.7c-1.1,5.4,2.3,10.7,7.7,11.9S243,45.9,244.1,40.5z M210,60c0-5.5-4.5-10-10-10s-10,4.5-10,10s4.5,10,10,10
		S210,65.5,210,60z M177.4,61.5c-1.3-5.4-6.7-8.7-12-7.4c-5.4,1.3-8.7,6.7-7.4,12s6.7,8.7,12,7.4C175.4,72.2,178.7,66.8,177.4,61.5z
		 M146.1,70.4c-2.5-4.9-8.5-6.9-13.4-4.4c-4.9,2.5-6.9,8.5-4.4,13.4c2.5,4.9,8.5,6.9,13.4,4.4C146.6,81.3,148.6,75.3,146.1,70.4z
		 M117.7,86.3c-3.6-4.2-9.9-4.8-14.1-1.2s-4.8,9.9-1.2,14.1c3.6,4.2,9.9,4.8,14.1,1.2C120.7,96.9,121.2,90.6,117.7,86.3z
		 M93.7,108.4c-4.4-3.3-10.7-2.4-14,2s-2.4,10.7,2,14c4.4,3.3,10.7,2.4,14-2C99,117.9,98.1,111.7,93.7,108.4z M75.4,135.4
		c-5.1-2.2-11,0.2-13.1,5.2c-2.2,5.1,0.2,11,5.2,13.1c5.1,2.2,11-0.2,13.1-5.2C82.8,143.4,80.5,137.6,75.4,135.4z M63.9,165.8
		c-5.4-1-10.6,2.7-11.6,8.1c-1,5.4,2.7,10.6,8.1,11.6c5.4,1,10.6-2.7,11.6-8.1C72.9,172,69.3,166.8,63.9,165.8z M59.6,198.2
		c-5.5,0.3-9.7,5.1-9.4,10.6s5.1,9.7,10.6,9.4c5.5-0.3,9.7-5.1,9.4-10.6C69.9,202,65.2,197.8,59.6,198.2z M63,230.6
		c-5.3,1.6-8.3,7.2-6.7,12.4c1.6,5.3,7.2,8.3,12.4,6.7c5.3-1.6,8.3-7.2,6.7-12.4S68.3,229,63,230.6z M73.7,261.3
		c-4.8,2.8-6.4,8.9-3.7,13.7s8.9,6.4,13.7,3.7c4.8-2.8,6.4-8.9,3.7-13.7S78.5,258.6,73.7,261.3z M91.3,288.8
		c-4,3.8-4.2,10.1-0.4,14.1c3.8,4,10.1,4.2,14.1,0.4s4.2-10.1,0.4-14.1C101.6,285.2,95.3,285,91.3,288.8z M114.7,311.5
		c-3,4.6-1.8,10.8,2.9,13.9c4.6,3,10.8,1.8,13.8-2.9s1.8-10.8-2.9-13.8C123.9,305.6,117.7,306.9,114.7,311.5z M142.7,328.1
		c-1.9,5.2,0.8,10.9,6,12.8c5.2,1.9,10.9-0.8,12.8-6c1.9-5.2-0.8-10.9-6-12.8C150.3,320.3,144.6,323,142.7,328.1z M173.8,337.9
		c-0.6,5.5,3.3,10.5,8.8,11.1s10.5-3.3,11.1-8.8c0.6-5.5-3.3-10.5-8.8-11.1S174.5,332.4,173.8,337.9z M206.3,340.2
		c0.6,5.5,5.6,9.4,11.1,8.8c5.5-0.6,9.4-5.6,8.8-11.1c-0.6-5.5-5.6-9.4-11.1-8.8C209.6,329.8,205.7,334.7,206.3,340.2z M238.5,335
		c1.9,5.2,7.6,7.9,12.8,6s7.9-7.6,6-12.8c-1.9-5.2-7.6-7.9-12.8-6C239.3,324.1,236.6,329.8,238.5,335z M268.6,322.5
		c3,4.6,9.2,5.9,13.8,2.9c4.6-3,5.9-9.2,2.9-13.8c-3-4.6-9.2-5.9-13.8-2.9C266.8,311.7,265.5,317.9,268.6,322.5z M295,303.4
		c4,3.8,10.3,3.6,14.1-0.4c3.8-4,3.6-10.3-0.4-14.1c-4-3.8-10.3-3.6-14.1,0.4C290.8,293.2,291,299.6,295,303.4z M316.2,278.7
		c4.8,2.8,10.9,1.1,13.7-3.7s1.1-10.9-3.7-13.7s-10.9-1.1-13.7,3.7S311.5,275.9,316.2,278.7z M331.3,249.7
		c5.3,1.6,10.9-1.4,12.4-6.7c1.6-5.3-1.4-10.9-6.7-12.4c-5.3-1.6-10.9,1.4-12.4,6.7C323,242.6,326,248.2,331.3,249.7z M339.2,218.1
		c5.5,0.3,10.2-3.9,10.6-9.4c0.3-5.5-3.9-10.2-9.4-10.6c-5.5-0.3-10.2,3.9-10.6,9.4C329.5,213.1,333.7,217.8,339.2,218.1z
		 M339.6,185.5c5.4-1,9.1-6.1,8.1-11.6s-6.1-9.1-11.6-8.1c-5.4,1-9.1,6.1-8.1,11.6C329,182.9,334.2,186.5,339.6,185.5z M332.5,153.7
		c5.1-2.2,7.4-8.1,5.2-13.1c-2.2-5.1-8.1-7.4-13.1-5.2s-7.4,8.1-5.2,13.1C321.6,153.6,327.4,155.9,332.5,153.7z M318.3,124.4
		c4.4-3.3,5.3-9.6,2-14c-3.3-4.4-9.6-5.3-14-2s-5.3,9.6-2,14S313.8,127.7,318.3,124.4z M297.7,99.2c3.6-4.2,3-10.5-1.2-14.1
		c-4.2-3.6-10.5-3-14.1,1.2s-3,10.5,1.2,14.1C287.8,104,294.1,103.4,297.7,99.2z M271.8,79.4c2.5-4.9,0.5-10.9-4.4-13.4
		c-4.9-2.5-10.9-0.5-13.4,4.4c-2.5,4.9-0.5,10.9,4.4,13.4C263.3,86.3,269.3,84.3,271.8,79.4z M242,66.1c1.3-5.4-2.1-10.8-7.4-12
		s-10.8,2.1-12,7.4c-1.3,5.4,2.1,10.8,7.4,12S240.7,71.4,242,66.1z M210,85.2c0-5.5-4.5-10-10-10s-10,4.5-10,10c0,5.5,4.5,10,10,10
		S210,90.7,210,85.2z M179.9,86.5c-1.4-5.3-6.9-8.5-12.2-7.1c-5.3,1.4-8.5,6.9-7.1,12.2c1.4,5.3,6.9,8.5,12.2,7.1
		C178.2,97.3,181.4,91.9,179.9,86.5z M151.3,95.6c-2.8-4.8-8.9-6.4-13.7-3.7c-4.8,2.8-6.4,8.9-3.7,13.7s8.9,6.4,13.7,3.7
		C152.4,106.5,154,100.4,151.3,95.6z M125.9,111.8c-3.9-3.9-10.2-3.9-14.1,0s-3.9,10.2,0,14.1s10.2,3.9,14.1,0
		S129.8,115.7,125.9,111.8z M105.6,133.9c-4.8-2.8-10.9-1.1-13.7,3.7c-2.8,4.8-1.1,10.9,3.7,13.7c4.8,2.8,10.9,1.1,13.7-3.7
		C112,142.8,110.4,136.7,105.6,133.9z M91.7,160.6c-5.3-1.4-10.8,1.7-12.2,7.1c-1.4,5.3,1.7,10.8,7.1,12.2
		c5.3,1.4,10.8-1.7,12.2-7.1C100.2,167.5,97,162.1,91.7,160.6z M85.2,190c-5.5,0-10,4.5-10,10s4.5,10,10,10c5.5,0,10-4.5,10-10
		S90.7,190,85.2,190z M86.5,220.1c-5.3,1.4-8.5,6.9-7.1,12.2c1.4,5.3,6.9,8.5,12.2,7.1c5.3-1.4,8.5-6.9,7.1-12.2
		C97.3,221.8,91.9,218.6,86.5,220.1z M95.6,248.7c-4.8,2.8-6.4,8.9-3.7,13.7c2.8,4.8,8.9,6.4,13.7,3.7c4.8-2.8,6.4-8.9,3.7-13.7
		C106.5,247.6,100.4,246,95.6,248.7z M111.8,274.1c-3.9,3.9-3.9,10.2,0,14.1s10.2,3.9,14.1,0s3.9-10.2,0-14.1
		S115.7,270.2,111.8,274.1z M133.9,294.4c-2.8,4.8-1.1,10.9,3.7,13.7c4.8,2.8,10.9,1.1,13.7-3.7c2.8-4.8,1.1-10.9-3.7-13.7
		C142.8,288,136.7,289.6,133.9,294.4z M160.6,308.3c-1.4,5.3,1.7,10.8,7.1,12.2c5.3,1.4,10.8-1.7,12.2-7.1s-1.7-10.8-7.1-12.2
		C167.5,299.8,162.1,303,160.6,308.3z M190,314.8c0,5.5,4.5,10,10,10s10-4.5,10-10c0-5.5-4.5-10-10-10S190,309.3,190,314.8z
		 M220.1,313.5c1.4,5.3,6.9,8.5,12.2,7.1c5.3-1.4,8.5-6.9,7.1-12.2c-1.4-5.3-6.9-8.5-12.2-7.1C221.8,302.7,218.6,308.1,220.1,313.5z
		 M248.7,304.4c2.8,4.8,8.9,6.4,13.7,3.7c4.8-2.8,6.4-8.9,3.7-13.7c-2.8-4.8-8.9-6.4-13.7-3.7C247.6,293.5,246,299.6,248.7,304.4z
		 M274.1,288.2c3.9,3.9,10.2,3.9,14.1,0s3.9-10.2,0-14.1s-10.2-3.9-14.1,0S270.2,284.3,274.1,288.2z M294.4,266.1
		c4.8,2.8,10.9,1.1,13.7-3.7c2.8-4.8,1.1-10.9-3.7-13.7c-4.8-2.8-10.9-1.1-13.7,3.7C288,257.2,289.6,263.3,294.4,266.1z
		 M308.3,239.4c5.3,1.4,10.8-1.7,12.2-7.1c1.4-5.3-1.7-10.8-7.1-12.2s-10.8,1.7-12.2,7.1C299.8,232.5,303,237.9,308.3,239.4z
		 M314.8,210c5.5,0,10-4.5,10-10s-4.5-10-10-10c-5.5,0-10,4.5-10,10S309.3,210,314.8,210z M313.5,179.9c5.3-1.4,8.5-6.9,7.1-12.2
		c-1.4-5.3-6.9-8.5-12.2-7.1c-5.3,1.4-8.5,6.9-7.1,12.2C302.7,178.2,308.1,181.4,313.5,179.9z M304.4,151.3
		c4.8-2.8,6.4-8.9,3.7-13.7c-2.8-4.8-8.9-6.4-13.7-3.7s-6.4,8.9-3.7,13.7C293.5,152.4,299.6,154,304.4,151.3z M288.2,125.9
		c3.9-3.9,3.9-10.2,0-14.1s-10.2-3.9-14.1,0s-3.9,10.2,0,14.1S284.3,129.8,288.2,125.9z M266.1,105.6c2.8-4.8,1.1-10.9-3.7-13.7
		c-4.8-2.8-10.9-1.1-13.7,3.7c-2.8,4.8-1.1,10.9,3.7,13.7C257.2,112,263.3,110.4,266.1,105.6z M239.4,91.7
		c1.4-5.3-1.7-10.8-7.1-12.2c-5.3-1.4-10.8,1.7-12.2,7.1c-1.4,5.3,1.7,10.8,7.1,12.2C232.5,100.2,237.9,97,239.4,91.7z"/>
</g>
<g>
	<defs>
		<path id="SVGID_3_" d="M343.1,79.1l-18.3,48.3l-62,7.2l-50.7,161.5v27.6l-12.2,10v15.4l15.7,6.2c0,0,6.3,23.9,6.6,25.6
			c0.3,1.7,166.4-25.6,166.4-25.6V70L343.1,79.1z"/>
	</defs>
	<clipPath id="SVGID_4_">
		<use xlink:href="#SVGID_3_"  style="overflow:visible;"/>
	</clipPath>
	<path class="st1" d="M200,44.8c-5.5,0-10-4.5-10-10s4.5-10,10-10s10,4.5,10,10S205.5,44.8,200,44.8z M175.4,36.3
		c-1.1-5.4-6.5-8.9-11.9-7.7s-8.9,6.5-7.7,11.9s6.5,8.9,11.9,7.7S176.6,41.7,175.4,36.3z M141.9,45c-2.2-5-8.2-7.3-13.2-5.1
		c-5,2.2-7.3,8.2-5.1,13.2s8.2,7.3,13.2,5.1C141.9,55.9,144.2,50,141.9,45z M111,60.5c-3.2-4.5-9.5-5.5-14-2.2
		c-4.5,3.2-5.5,9.5-2.2,14c3.2,4.5,9.5,5.5,14,2.2C113.2,71.2,114.2,64.9,111,60.5z M83.9,82c-4.1-3.7-10.4-3.4-14.1,0.7
		c-3.7,4.1-3.4,10.4,0.7,14.1c4.1,3.7,10.4,3.4,14.1-0.7C88.3,92,88,85.7,83.9,82z M61.9,108.7c-4.8-2.8-10.9-1.1-13.7,3.7
		c-2.8,4.8-1.1,10.9,3.7,13.7s10.9,1.1,13.7-3.7C68.3,117.6,66.7,111.5,61.9,108.7z M46,139.4c-5.3-1.7-10.9,1.2-12.6,6.4
		c-1.7,5.3,1.2,10.9,6.4,12.6s10.9-1.2,12.6-6.4C54.1,146.8,51.2,141.1,46,139.4z M36.7,172.8c-5.5-0.6-10.4,3.4-11,8.9
		c-0.6,5.5,3.4,10.4,8.9,11c5.5,0.6,10.4-3.4,11-8.9C46.2,178.3,42.2,173.4,36.7,172.8z M34.6,207.3c-5.5,0.6-9.5,5.5-8.9,11
		c0.6,5.5,5.5,9.5,11,8.9c5.5-0.6,9.5-5.5,8.9-11C45,210.7,40.1,206.7,34.6,207.3z M39.8,241.5c-5.3,1.7-8.1,7.3-6.4,12.6
		c1.7,5.3,7.3,8.1,12.6,6.4c5.3-1.7,8.1-7.3,6.4-12.6C50.7,242.7,45,239.8,39.8,241.5z M51.9,274c-4.8,2.8-6.4,8.9-3.7,13.7
		c2.8,4.8,8.9,6.4,13.7,3.7c4.8-2.8,6.4-8.9,3.7-13.7C62.8,272.8,56.7,271.2,51.9,274z M70.5,303.1c-4.1,3.7-4.4,10-0.7,14.1
		c3.7,4.1,10,4.4,14.1,0.7c4.1-3.7,4.4-10,0.7-14.1C81,299.8,74.6,299.4,70.5,303.1z M94.8,327.8c-3.2,4.5-2.3,10.7,2.2,14
		s10.7,2.3,14-2.2s2.3-10.7-2.2-14S98,323.3,94.8,327.8z M123.7,346.9c-2.2,5,0,11,5.1,13.2c5,2.2,11,0,13.2-5.1
		c2.2-5,0-11-5.1-13.2C131.8,339.6,125.9,341.8,123.7,346.9z M155.9,359.5c-1.1,5.4,2.3,10.7,7.7,11.9c5.4,1.1,10.7-2.3,11.9-7.7
		c1.1-5.4-2.3-10.7-7.7-11.9S157,354.1,155.9,359.5z M190,365.2c0,5.5,4.5,10,10,10s10-4.5,10-10c0-5.5-4.5-10-10-10
		S190,359.7,190,365.2z M224.6,363.7c1.1,5.4,6.5,8.9,11.9,7.7c5.4-1.1,8.9-6.5,7.7-11.9s-6.5-8.9-11.9-7.7S223.4,358.3,224.6,363.7
		z M258.1,355c2.2,5,8.2,7.3,13.2,5.1c5-2.2,7.3-8.2,5.1-13.2c-2.2-5-8.2-7.3-13.2-5.1C258.1,344.1,255.8,350,258.1,355z M289,339.5
		c3.2,4.5,9.5,5.5,14,2.2s5.5-9.5,2.2-14s-9.5-5.5-14-2.2S285.8,335.1,289,339.5z M316.1,318c4.1,3.7,10.4,3.4,14.1-0.7
		c3.7-4.1,3.4-10.4-0.7-14.1c-4.1-3.7-10.4-3.4-14.1,0.7C311.7,308,312,314.3,316.1,318z M338.1,291.3c4.8,2.8,10.9,1.1,13.7-3.7
		c2.8-4.8,1.1-10.9-3.7-13.7s-10.9-1.1-13.7,3.7C331.7,282.4,333.3,288.5,338.1,291.3z M354,260.6c5.3,1.7,10.9-1.2,12.6-6.4
		c1.7-5.3-1.2-10.9-6.4-12.6s-10.9,1.2-12.6,6.4C345.9,253.2,348.8,258.9,354,260.6z M363.3,227.2c5.5,0.6,10.4-3.4,11-8.9
		c0.6-5.5-3.4-10.4-8.9-11c-5.5-0.6-10.4,3.4-11,8.9C353.8,221.7,357.8,226.6,363.3,227.2z M365.4,192.7c5.5-0.6,9.5-5.5,8.9-11
		c-0.6-5.5-5.5-9.5-11-8.9c-5.5,0.6-9.5,5.5-8.9,11C355,189.3,359.9,193.3,365.4,192.7z M360.2,158.5c5.3-1.7,8.1-7.3,6.4-12.6
		c-1.7-5.3-7.3-8.1-12.6-6.4c-5.3,1.7-8.1,7.3-6.4,12.6C349.3,157.3,355,160.2,360.2,158.5z M348.1,126c4.8-2.8,6.4-8.9,3.7-13.7
		c-2.8-4.8-8.9-6.4-13.7-3.7c-4.8,2.8-6.4,8.9-3.7,13.7C337.2,127.2,343.3,128.8,348.1,126z M329.5,96.9c4.1-3.7,4.4-10,0.7-14.1
		c-3.7-4.1-10-4.4-14.1-0.7c-4.1,3.7-4.4,10-0.7,14.1C319,100.2,325.4,100.6,329.5,96.9z M305.2,72.2c3.2-4.5,2.3-10.7-2.2-14
		c-4.5-3.2-10.7-2.3-14,2.2s-2.3,10.7,2.2,14C295.7,77.7,302,76.7,305.2,72.2z M276.3,53.1c2.2-5,0-11-5.1-13.2
		c-5-2.2-11,0-13.2,5.1c-2.2,5,0,11,5.1,13.2C268.2,60.4,274.1,58.2,276.3,53.1z M244.1,40.5c1.1-5.4-2.3-10.7-7.7-11.9
		s-10.7,2.3-11.9,7.7c-1.1,5.4,2.3,10.7,7.7,11.9S243,45.9,244.1,40.5z M210,60c0-5.5-4.5-10-10-10s-10,4.5-10,10s4.5,10,10,10
		S210,65.5,210,60z M177.4,61.5c-1.3-5.4-6.7-8.7-12-7.4c-5.4,1.3-8.7,6.7-7.4,12s6.7,8.7,12,7.4C175.4,72.2,178.7,66.8,177.4,61.5z
		 M146.1,70.4c-2.5-4.9-8.5-6.9-13.4-4.4c-4.9,2.5-6.9,8.5-4.4,13.4c2.5,4.9,8.5,6.9,13.4,4.4C146.6,81.3,148.6,75.3,146.1,70.4z
		 M117.7,86.3c-3.6-4.2-9.9-4.8-14.1-1.2s-4.8,9.9-1.2,14.1c3.6,4.2,9.9,4.8,14.1,1.2C120.7,96.9,121.2,90.6,117.7,86.3z
		 M93.7,108.4c-4.4-3.3-10.7-2.4-14,2s-2.4,10.7,2,14c4.4,3.3,10.7,2.4,14-2C99,117.9,98.1,111.7,93.7,108.4z M75.4,135.4
		c-5.1-2.2-11,0.2-13.1,5.2c-2.2,5.1,0.2,11,5.2,13.1c5.1,2.2,11-0.2,13.1-5.2C82.8,143.4,80.5,137.6,75.4,135.4z M63.9,165.8
		c-5.4-1-10.6,2.7-11.6,8.1c-1,5.4,2.7,10.6,8.1,11.6c5.4,1,10.6-2.7,11.6-8.1C72.9,172,69.3,166.8,63.9,165.8z M59.6,198.2
		c-5.5,0.3-9.7,5.1-9.4,10.6s5.1,9.7,10.6,9.4c5.5-0.3,9.7-5.1,9.4-10.6C69.9,202,65.2,197.8,59.6,198.2z M63,230.6
		c-5.3,1.6-8.3,7.2-6.7,12.4c1.6,5.3,7.2,8.3,12.4,6.7c5.3-1.6,8.3-7.2,6.7-12.4S68.3,229,63,230.6z M73.7,261.3
		c-4.8,2.8-6.4,8.9-3.7,13.7s8.9,6.4,13.7,3.7c4.8-2.8,6.4-8.9,3.7-13.7S78.5,258.6,73.7,261.3z M91.3,288.8
		c-4,3.8-4.2,10.1-0.4,14.1c3.8,4,10.1,4.2,14.1,0.4s4.2-10.1,0.4-14.1C101.6,285.2,95.3,285,91.3,288.8z M114.7,311.5
		c-3,4.6-1.8,10.8,2.9,13.9c4.6,3,10.8,1.8,13.8-2.9s1.8-10.8-2.9-13.8C123.9,305.6,117.7,306.9,114.7,311.5z M142.7,328.1
		c-1.9,5.2,0.8,10.9,6,12.8c5.2,1.9,10.9-0.8,12.8-6c1.9-5.2-0.8-10.9-6-12.8C150.3,320.3,144.6,323,142.7,328.1z M173.8,337.9
		c-0.6,5.5,3.3,10.5,8.8,11.1s10.5-3.3,11.1-8.8c0.6-5.5-3.3-10.5-8.8-11.1S174.5,332.4,173.8,337.9z M206.3,340.2
		c0.6,5.5,5.6,9.4,11.1,8.8c5.5-0.6,9.4-5.6,8.8-11.1c-0.6-5.5-5.6-9.4-11.1-8.8C209.6,329.8,205.7,334.7,206.3,340.2z M238.5,335
		c1.9,5.2,7.6,7.9,12.8,6s7.9-7.6,6-12.8c-1.9-5.2-7.6-7.9-12.8-6C239.3,324.1,236.6,329.8,238.5,335z M268.6,322.5
		c3,4.6,9.2,5.9,13.8,2.9c4.6-3,5.9-9.2,2.9-13.8c-3-4.6-9.2-5.9-13.8-2.9C266.8,311.7,265.5,317.9,268.6,322.5z M295,303.4
		c4,3.8,10.3,3.6,14.1-0.4c3.8-4,3.6-10.3-0.4-14.1c-4-3.8-10.3-3.6-14.1,0.4C290.8,293.2,291,299.6,295,303.4z M316.2,278.7
		c4.8,2.8,10.9,1.1,13.7-3.7s1.1-10.9-3.7-13.7s-10.9-1.1-13.7,3.7S311.5,275.9,316.2,278.7z M331.3,249.7
		c5.3,1.6,10.9-1.4,12.4-6.7c1.6-5.3-1.4-10.9-6.7-12.4c-5.3-1.6-10.9,1.4-12.4,6.7C323,242.6,326,248.2,331.3,249.7z M339.2,218.1
		c5.5,0.3,10.2-3.9,10.6-9.4c0.3-5.5-3.9-10.2-9.4-10.6c-5.5-0.3-10.2,3.9-10.6,9.4C329.5,213.1,333.7,217.8,339.2,218.1z
		 M339.6,185.5c5.4-1,9.1-6.1,8.1-11.6s-6.1-9.1-11.6-8.1c-5.4,1-9.1,6.1-8.1,11.6C329,182.9,334.2,186.5,339.6,185.5z M332.5,153.7
		c5.1-2.2,7.4-8.1,5.2-13.1c-2.2-5.1-8.1-7.4-13.1-5.2s-7.4,8.1-5.2,13.1C321.6,153.6,327.4,155.9,332.5,153.7z M318.3,124.4
		c4.4-3.3,5.3-9.6,2-14c-3.3-4.4-9.6-5.3-14-2s-5.3,9.6-2,14S313.8,127.7,318.3,124.4z M297.7,99.2c3.6-4.2,3-10.5-1.2-14.1
		c-4.2-3.6-10.5-3-14.1,1.2s-3,10.5,1.2,14.1C287.8,104,294.1,103.4,297.7,99.2z M271.8,79.4c2.5-4.9,0.5-10.9-4.4-13.4
		c-4.9-2.5-10.9-0.5-13.4,4.4c-2.5,4.9-0.5,10.9,4.4,13.4C263.3,86.3,269.3,84.3,271.8,79.4z M242,66.1c1.3-5.4-2.1-10.8-7.4-12
		s-10.8,2.1-12,7.4c-1.3,5.4,2.1,10.8,7.4,12S240.7,71.4,242,66.1z M210,85.2c0-5.5-4.5-10-10-10s-10,4.5-10,10c0,5.5,4.5,10,10,10
		S210,90.7,210,85.2z M179.9,86.5c-1.4-5.3-6.9-8.5-12.2-7.1c-5.3,1.4-8.5,6.9-7.1,12.2c1.4,5.3,6.9,8.5,12.2,7.1
		C178.2,97.3,181.4,91.9,179.9,86.5z M151.3,95.6c-2.8-4.8-8.9-6.4-13.7-3.7c-4.8,2.8-6.4,8.9-3.7,13.7s8.9,6.4,13.7,3.7
		C152.4,106.5,154,100.4,151.3,95.6z M125.9,111.8c-3.9-3.9-10.2-3.9-14.1,0s-3.9,10.2,0,14.1s10.2,3.9,14.1,0
		S129.8,115.7,125.9,111.8z M105.6,133.9c-4.8-2.8-10.9-1.1-13.7,3.7c-2.8,4.8-1.1,10.9,3.7,13.7c4.8,2.8,10.9,1.1,13.7-3.7
		C112,142.8,110.4,136.7,105.6,133.9z M91.7,160.6c-5.3-1.4-10.8,1.7-12.2,7.1c-1.4,5.3,1.7,10.8,7.1,12.2
		c5.3,1.4,10.8-1.7,12.2-7.1C100.2,167.5,97,162.1,91.7,160.6z M85.2,190c-5.5,0-10,4.5-10,10s4.5,10,10,10c5.5,0,10-4.5,10-10
		S90.7,190,85.2,190z M86.5,220.1c-5.3,1.4-8.5,6.9-7.1,12.2c1.4,5.3,6.9,8.5,12.2,7.1c5.3-1.4,8.5-6.9,7.1-12.2
		C97.3,221.8,91.9,218.6,86.5,220.1z M95.6,248.7c-4.8,2.8-6.4,8.9-3.7,13.7c2.8,4.8,8.9,6.4,13.7,3.7c4.8-2.8,6.4-8.9,3.7-13.7
		C106.5,247.6,100.4,246,95.6,248.7z M111.8,274.1c-3.9,3.9-3.9,10.2,0,14.1s10.2,3.9,14.1,0s3.9-10.2,0-14.1
		S115.7,270.2,111.8,274.1z M133.9,294.4c-2.8,4.8-1.1,10.9,3.7,13.7c4.8,2.8,10.9,1.1,13.7-3.7c2.8-4.8,1.1-10.9-3.7-13.7
		C142.8,288,136.7,289.6,133.9,294.4z M160.6,308.3c-1.4,5.3,1.7,10.8,7.1,12.2c5.3,1.4,10.8-1.7,12.2-7.1s-1.7-10.8-7.1-12.2
		C167.5,299.8,162.1,303,160.6,308.3z M190,314.8c0,5.5,4.5,10,10,10s10-4.5,10-10c0-5.5-4.5-10-10-10S190,309.3,190,314.8z
		 M220.1,313.5c1.4,5.3,6.9,8.5,12.2,7.1c5.3-1.4,8.5-6.9,7.1-12.2c-1.4-5.3-6.9-8.5-12.2-7.1C221.8,302.7,218.6,308.1,220.1,313.5z
		 M248.7,304.4c2.8,4.8,8.9,6.4,13.7,3.7c4.8-2.8,6.4-8.9,3.7-13.7c-2.8-4.8-8.9-6.4-13.7-3.7C247.6,293.5,246,299.6,248.7,304.4z
		 M274.1,288.2c3.9,3.9,10.2,3.9,14.1,0s3.9-10.2,0-14.1s-10.2-3.9-14.1,0S270.2,284.3,274.1,288.2z M294.4,266.1
		c4.8,2.8,10.9,1.1,13.7-3.7c2.8-4.8,1.1-10.9-3.7-13.7c-4.8-2.8-10.9-1.1-13.7,3.7C288,257.2,289.6,263.3,294.4,266.1z
		 M308.3,239.4c5.3,1.4,10.8-1.7,12.2-7.1c1.4-5.3-1.7-10.8-7.1-12.2s-10.8,1.7-12.2,7.1C299.8,232.5,303,237.9,308.3,239.4z
		 M314.8,210c5.5,0,10-4.5,10-10s-4.5-10-10-10c-5.5,0-10,4.5-10,10S309.3,210,314.8,210z M313.5,179.9c5.3-1.4,8.5-6.9,7.1-12.2
		c-1.4-5.3-6.9-8.5-12.2-7.1c-5.3,1.4-8.5,6.9-7.1,12.2C302.7,178.2,308.1,181.4,313.5,179.9z M304.4,151.3
		c4.8-2.8,6.4-8.9,3.7-13.7c-2.8-4.8-8.9-6.4-13.7-3.7s-6.4,8.9-3.7,13.7C293.5,152.4,299.6,154,304.4,151.3z M288.2,125.9
		c3.9-3.9,3.9-10.2,0-14.1s-10.2-3.9-14.1,0s-3.9,10.2,0,14.1S284.3,129.8,288.2,125.9z M266.1,105.6c2.8-4.8,1.1-10.9-3.7-13.7
		c-4.8-2.8-10.9-1.1-13.7,3.7c-2.8,4.8-1.1,10.9,3.7,13.7C257.2,112,263.3,110.4,266.1,105.6z M239.4,91.7
		c1.4-5.3-1.7-10.8-7.1-12.2c-5.3-1.4-10.8,1.7-12.2,7.1c-1.4,5.3,1.7,10.8,7.1,12.2C232.5,100.2,237.9,97,239.4,91.7z"/>
</g>
<g>
	<defs>
		<polygon id="SVGID_5_" points="15.4,101.3 54.9,133.6 79.1,132.6 105.3,174.7 147.2,132.6 324.8,127.4 335,91.4 339.8,66.3 
			183.7,0 		"/>
	</defs>
	<clipPath id="SVGID_6_">
		<use xlink:href="#SVGID_5_"  style="overflow:visible;"/>
	</clipPath>
	<path class="st2" d="M200,44.8c-5.5,0-10-4.5-10-10s4.5-10,10-10s10,4.5,10,10S205.5,44.8,200,44.8z M175.4,36.3
		c-1.1-5.4-6.5-8.9-11.9-7.7s-8.9,6.5-7.7,11.9s6.5,8.9,11.9,7.7S176.6,41.7,175.4,36.3z M141.9,45c-2.2-5-8.2-7.3-13.2-5.1
		c-5,2.2-7.3,8.2-5.1,13.2s8.2,7.3,13.2,5.1C141.9,55.9,144.2,50,141.9,45z M111,60.5c-3.2-4.5-9.5-5.5-14-2.2
		c-4.5,3.2-5.5,9.5-2.2,14c3.2,4.5,9.5,5.5,14,2.2C113.2,71.2,114.2,64.9,111,60.5z M83.9,82c-4.1-3.7-10.4-3.4-14.1,0.7
		c-3.7,4.1-3.4,10.4,0.7,14.1c4.1,3.7,10.4,3.4,14.1-0.7C88.3,92,88,85.7,83.9,82z M61.9,108.7c-4.8-2.8-10.9-1.1-13.7,3.7
		c-2.8,4.8-1.1,10.9,3.7,13.7s10.9,1.1,13.7-3.7C68.3,117.6,66.7,111.5,61.9,108.7z M46,139.4c-5.3-1.7-10.9,1.2-12.6,6.4
		c-1.7,5.3,1.2,10.9,6.4,12.6s10.9-1.2,12.6-6.4C54.1,146.8,51.2,141.1,46,139.4z M36.7,172.8c-5.5-0.6-10.4,3.4-11,8.9
		c-0.6,5.5,3.4,10.4,8.9,11c5.5,0.6,10.4-3.4,11-8.9C46.2,178.3,42.2,173.4,36.7,172.8z M34.6,207.3c-5.5,0.6-9.5,5.5-8.9,11
		c0.6,5.5,5.5,9.5,11,8.9c5.5-0.6,9.5-5.5,8.9-11C45,210.7,40.1,206.7,34.6,207.3z M39.8,241.5c-5.3,1.7-8.1,7.3-6.4,12.6
		c1.7,5.3,7.3,8.1,12.6,6.4c5.3-1.7,8.1-7.3,6.4-12.6C50.7,242.7,45,239.8,39.8,241.5z M51.9,274c-4.8,2.8-6.4,8.9-3.7,13.7
		c2.8,4.8,8.9,6.4,13.7,3.7c4.8-2.8,6.4-8.9,3.7-13.7C62.8,272.8,56.7,271.2,51.9,274z M70.5,303.1c-4.1,3.7-4.4,10-0.7,14.1
		c3.7,4.1,10,4.4,14.1,0.7c4.1-3.7,4.4-10,0.7-14.1C81,299.8,74.6,299.4,70.5,303.1z M94.8,327.8c-3.2,4.5-2.3,10.7,2.2,14
		s10.7,2.3,14-2.2s2.3-10.7-2.2-14S98,323.3,94.8,327.8z M123.7,346.9c-2.2,5,0,11,5.1,13.2c5,2.2,11,0,13.2-5.1
		c2.2-5,0-11-5.1-13.2C131.8,339.6,125.9,341.8,123.7,346.9z M155.9,359.5c-1.1,5.4,2.3,10.7,7.7,11.9c5.4,1.1,10.7-2.3,11.9-7.7
		c1.1-5.4-2.3-10.7-7.7-11.9S157,354.1,155.9,359.5z M190,365.2c0,5.5,4.5,10,10,10s10-4.5,10-10c0-5.5-4.5-10-10-10
		S190,359.7,190,365.2z M224.6,363.7c1.1,5.4,6.5,8.9,11.9,7.7c5.4-1.1,8.9-6.5,7.7-11.9s-6.5-8.9-11.9-7.7S223.4,358.3,224.6,363.7
		z M258.1,355c2.2,5,8.2,7.3,13.2,5.1c5-2.2,7.3-8.2,5.1-13.2c-2.2-5-8.2-7.3-13.2-5.1C258.1,344.1,255.8,350,258.1,355z M289,339.5
		c3.2,4.5,9.5,5.5,14,2.2s5.5-9.5,2.2-14s-9.5-5.5-14-2.2S285.8,335.1,289,339.5z M316.1,318c4.1,3.7,10.4,3.4,14.1-0.7
		c3.7-4.1,3.4-10.4-0.7-14.1c-4.1-3.7-10.4-3.4-14.1,0.7C311.7,308,312,314.3,316.1,318z M338.1,291.3c4.8,2.8,10.9,1.1,13.7-3.7
		c2.8-4.8,1.1-10.9-3.7-13.7s-10.9-1.1-13.7,3.7C331.7,282.4,333.3,288.5,338.1,291.3z M354,260.6c5.3,1.7,10.9-1.2,12.6-6.4
		c1.7-5.3-1.2-10.9-6.4-12.6s-10.9,1.2-12.6,6.4C345.9,253.2,348.8,258.9,354,260.6z M363.3,227.2c5.5,0.6,10.4-3.4,11-8.9
		c0.6-5.5-3.4-10.4-8.9-11c-5.5-0.6-10.4,3.4-11,8.9C353.8,221.7,357.8,226.6,363.3,227.2z M365.4,192.7c5.5-0.6,9.5-5.5,8.9-11
		c-0.6-5.5-5.5-9.5-11-8.9c-5.5,0.6-9.5,5.5-8.9,11C355,189.3,359.9,193.3,365.4,192.7z M360.2,158.5c5.3-1.7,8.1-7.3,6.4-12.6
		c-1.7-5.3-7.3-8.1-12.6-6.4c-5.3,1.7-8.1,7.3-6.4,12.6C349.3,157.3,355,160.2,360.2,158.5z M348.1,126c4.8-2.8,6.4-8.9,3.7-13.7
		c-2.8-4.8-8.9-6.4-13.7-3.7c-4.8,2.8-6.4,8.9-3.7,13.7C337.2,127.2,343.3,128.8,348.1,126z M329.5,96.9c4.1-3.7,4.4-10,0.7-14.1
		c-3.7-4.1-10-4.4-14.1-0.7c-4.1,3.7-4.4,10-0.7,14.1C319,100.2,325.4,100.6,329.5,96.9z M305.2,72.2c3.2-4.5,2.3-10.7-2.2-14
		c-4.5-3.2-10.7-2.3-14,2.2s-2.3,10.7,2.2,14C295.7,77.7,302,76.7,305.2,72.2z M276.3,53.1c2.2-5,0-11-5.1-13.2
		c-5-2.2-11,0-13.2,5.1c-2.2,5,0,11,5.1,13.2C268.2,60.4,274.1,58.2,276.3,53.1z M244.1,40.5c1.1-5.4-2.3-10.7-7.7-11.9
		s-10.7,2.3-11.9,7.7c-1.1,5.4,2.3,10.7,7.7,11.9S243,45.9,244.1,40.5z M210,60c0-5.5-4.5-10-10-10s-10,4.5-10,10s4.5,10,10,10
		S210,65.5,210,60z M177.4,61.5c-1.3-5.4-6.7-8.7-12-7.4c-5.4,1.3-8.7,6.7-7.4,12s6.7,8.7,12,7.4C175.4,72.2,178.7,66.8,177.4,61.5z
		 M146.1,70.4c-2.5-4.9-8.5-6.9-13.4-4.4c-4.9,2.5-6.9,8.5-4.4,13.4c2.5,4.9,8.5,6.9,13.4,4.4C146.6,81.3,148.6,75.3,146.1,70.4z
		 M117.7,86.3c-3.6-4.2-9.9-4.8-14.1-1.2s-4.8,9.9-1.2,14.1c3.6,4.2,9.9,4.8,14.1,1.2C120.7,96.9,121.2,90.6,117.7,86.3z
		 M93.7,108.4c-4.4-3.3-10.7-2.4-14,2s-2.4,10.7,2,14c4.4,3.3,10.7,2.4,14-2C99,117.9,98.1,111.7,93.7,108.4z M75.4,135.4
		c-5.1-2.2-11,0.2-13.1,5.2c-2.2,5.1,0.2,11,5.2,13.1c5.1,2.2,11-0.2,13.1-5.2C82.8,143.4,80.5,137.6,75.4,135.4z M63.9,165.8
		c-5.4-1-10.6,2.7-11.6,8.1c-1,5.4,2.7,10.6,8.1,11.6c5.4,1,10.6-2.7,11.6-8.1C72.9,172,69.3,166.8,63.9,165.8z M59.6,198.2
		c-5.5,0.3-9.7,5.1-9.4,10.6s5.1,9.7,10.6,9.4c5.5-0.3,9.7-5.1,9.4-10.6C69.9,202,65.2,197.8,59.6,198.2z M63,230.6
		c-5.3,1.6-8.3,7.2-6.7,12.4c1.6,5.3,7.2,8.3,12.4,6.7c5.3-1.6,8.3-7.2,6.7-12.4S68.3,229,63,230.6z M73.7,261.3
		c-4.8,2.8-6.4,8.9-3.7,13.7s8.9,6.4,13.7,3.7c4.8-2.8,6.4-8.9,3.7-13.7S78.5,258.6,73.7,261.3z M91.3,288.8
		c-4,3.8-4.2,10.1-0.4,14.1c3.8,4,10.1,4.2,14.1,0.4s4.2-10.1,0.4-14.1C101.6,285.2,95.3,285,91.3,288.8z M114.7,311.5
		c-3,4.6-1.8,10.8,2.9,13.9c4.6,3,10.8,1.8,13.8-2.9s1.8-10.8-2.9-13.8C123.9,305.6,117.7,306.9,114.7,311.5z M142.7,328.1
		c-1.9,5.2,0.8,10.9,6,12.8c5.2,1.9,10.9-0.8,12.8-6c1.9-5.2-0.8-10.9-6-12.8C150.3,320.3,144.6,323,142.7,328.1z M173.8,337.9
		c-0.6,5.5,3.3,10.5,8.8,11.1s10.5-3.3,11.1-8.8c0.6-5.5-3.3-10.5-8.8-11.1S174.5,332.4,173.8,337.9z M206.3,340.2
		c0.6,5.5,5.6,9.4,11.1,8.8c5.5-0.6,9.4-5.6,8.8-11.1c-0.6-5.5-5.6-9.4-11.1-8.8C209.6,329.8,205.7,334.7,206.3,340.2z M238.5,335
		c1.9,5.2,7.6,7.9,12.8,6s7.9-7.6,6-12.8c-1.9-5.2-7.6-7.9-12.8-6C239.3,324.1,236.6,329.8,238.5,335z M268.6,322.5
		c3,4.6,9.2,5.9,13.8,2.9c4.6-3,5.9-9.2,2.9-13.8c-3-4.6-9.2-5.9-13.8-2.9C266.8,311.7,265.5,317.9,268.6,322.5z M295,303.4
		c4,3.8,10.3,3.6,14.1-0.4c3.8-4,3.6-10.3-0.4-14.1c-4-3.8-10.3-3.6-14.1,0.4C290.8,293.2,291,299.6,295,303.4z M316.2,278.7
		c4.8,2.8,10.9,1.1,13.7-3.7s1.1-10.9-3.7-13.7s-10.9-1.1-13.7,3.7S311.5,275.9,316.2,278.7z M331.3,249.7
		c5.3,1.6,10.9-1.4,12.4-6.7c1.6-5.3-1.4-10.9-6.7-12.4c-5.3-1.6-10.9,1.4-12.4,6.7C323,242.6,326,248.2,331.3,249.7z M339.2,218.1
		c5.5,0.3,10.2-3.9,10.6-9.4c0.3-5.5-3.9-10.2-9.4-10.6c-5.5-0.3-10.2,3.9-10.6,9.4C329.5,213.1,333.7,217.8,339.2,218.1z
		 M339.6,185.5c5.4-1,9.1-6.1,8.1-11.6s-6.1-9.1-11.6-8.1c-5.4,1-9.1,6.1-8.1,11.6C329,182.9,334.2,186.5,339.6,185.5z M332.5,153.7
		c5.1-2.2,7.4-8.1,5.2-13.1c-2.2-5.1-8.1-7.4-13.1-5.2s-7.4,8.1-5.2,13.1C321.6,153.6,327.4,155.9,332.5,153.7z M318.3,124.4
		c4.4-3.3,5.3-9.6,2-14c-3.3-4.4-9.6-5.3-14-2s-5.3,9.6-2,14S313.8,127.7,318.3,124.4z M297.7,99.2c3.6-4.2,3-10.5-1.2-14.1
		c-4.2-3.6-10.5-3-14.1,1.2s-3,10.5,1.2,14.1C287.8,104,294.1,103.4,297.7,99.2z M271.8,79.4c2.5-4.9,0.5-10.9-4.4-13.4
		c-4.9-2.5-10.9-0.5-13.4,4.4c-2.5,4.9-0.5,10.9,4.4,13.4C263.3,86.3,269.3,84.3,271.8,79.4z M242,66.1c1.3-5.4-2.1-10.8-7.4-12
		s-10.8,2.1-12,7.4c-1.3,5.4,2.1,10.8,7.4,12S240.7,71.4,242,66.1z M210,85.2c0-5.5-4.5-10-10-10s-10,4.5-10,10c0,5.5,4.5,10,10,10
		S210,90.7,210,85.2z M179.9,86.5c-1.4-5.3-6.9-8.5-12.2-7.1c-5.3,1.4-8.5,6.9-7.1,12.2c1.4,5.3,6.9,8.5,12.2,7.1
		C178.2,97.3,181.4,91.9,179.9,86.5z M151.3,95.6c-2.8-4.8-8.9-6.4-13.7-3.7c-4.8,2.8-6.4,8.9-3.7,13.7s8.9,6.4,13.7,3.7
		C152.4,106.5,154,100.4,151.3,95.6z M125.9,111.8c-3.9-3.9-10.2-3.9-14.1,0s-3.9,10.2,0,14.1s10.2,3.9,14.1,0
		S129.8,115.7,125.9,111.8z M105.6,133.9c-4.8-2.8-10.9-1.1-13.7,3.7c-2.8,4.8-1.1,10.9,3.7,13.7c4.8,2.8,10.9,1.1,13.7-3.7
		C112,142.8,110.4,136.7,105.6,133.9z M91.7,160.6c-5.3-1.4-10.8,1.7-12.2,7.1c-1.4,5.3,1.7,10.8,7.1,12.2
		c5.3,1.4,10.8-1.7,12.2-7.1C100.2,167.5,97,162.1,91.7,160.6z M85.2,190c-5.5,0-10,4.5-10,10s4.5,10,10,10c5.5,0,10-4.5,10-10
		S90.7,190,85.2,190z M86.5,220.1c-5.3,1.4-8.5,6.9-7.1,12.2c1.4,5.3,6.9,8.5,12.2,7.1c5.3-1.4,8.5-6.9,7.1-12.2
		C97.3,221.8,91.9,218.6,86.5,220.1z M95.6,248.7c-4.8,2.8-6.4,8.9-3.7,13.7c2.8,4.8,8.9,6.4,13.7,3.7c4.8-2.8,6.4-8.9,3.7-13.7
		C106.5,247.6,100.4,246,95.6,248.7z M111.8,274.1c-3.9,3.9-3.9,10.2,0,14.1s10.2,3.9,14.1,0s3.9-10.2,0-14.1
		S115.7,270.2,111.8,274.1z M133.9,294.4c-2.8,4.8-1.1,10.9,3.7,13.7c4.8,2.8,10.9,1.1,13.7-3.7c2.8-4.8,1.1-10.9-3.7-13.7
		C142.8,288,136.7,289.6,133.9,294.4z M160.6,308.3c-1.4,5.3,1.7,10.8,7.1,12.2c5.3,1.4,10.8-1.7,12.2-7.1s-1.7-10.8-7.1-12.2
		C167.5,299.8,162.1,303,160.6,308.3z M190,314.8c0,5.5,4.5,10,10,10s10-4.5,10-10c0-5.5-4.5-10-10-10S190,309.3,190,314.8z
		 M220.1,313.5c1.4,5.3,6.9,8.5,12.2,7.1c5.3-1.4,8.5-6.9,7.1-12.2c-1.4-5.3-6.9-8.5-12.2-7.1C221.8,302.7,218.6,308.1,220.1,313.5z
		 M248.7,304.4c2.8,4.8,8.9,6.4,13.7,3.7c4.8-2.8,6.4-8.9,3.7-13.7c-2.8-4.8-8.9-6.4-13.7-3.7C247.6,293.5,246,299.6,248.7,304.4z
		 M274.1,288.2c3.9,3.9,10.2,3.9,14.1,0s3.9-10.2,0-14.1s-10.2-3.9-14.1,0S270.2,284.3,274.1,288.2z M294.4,266.1
		c4.8,2.8,10.9,1.1,13.7-3.7c2.8-4.8,1.1-10.9-3.7-13.7c-4.8-2.8-10.9-1.1-13.7,3.7C288,257.2,289.6,263.3,294.4,266.1z
		 M308.3,239.4c5.3,1.4,10.8-1.7,12.2-7.1c1.4-5.3-1.7-10.8-7.1-12.2s-10.8,1.7-12.2,7.1C299.8,232.5,303,237.9,308.3,239.4z
		 M314.8,210c5.5,0,10-4.5,10-10s-4.5-10-10-10c-5.5,0-10,4.5-10,10S309.3,210,314.8,210z M313.5,179.9c5.3-1.4,8.5-6.9,7.1-12.2
		c-1.4-5.3-6.9-8.5-12.2-7.1c-5.3,1.4-8.5,6.9-7.1,12.2C302.7,178.2,308.1,181.4,313.5,179.9z M304.4,151.3
		c4.8-2.8,6.4-8.9,3.7-13.7c-2.8-4.8-8.9-6.4-13.7-3.7s-6.4,8.9-3.7,13.7C293.5,152.4,299.6,154,304.4,151.3z M288.2,125.9
		c3.9-3.9,3.9-10.2,0-14.1s-10.2-3.9-14.1,0s-3.9,10.2,0,14.1S284.3,129.8,288.2,125.9z M266.1,105.6c2.8-4.8,1.1-10.9-3.7-13.7
		c-4.8-2.8-10.9-1.1-13.7,3.7c-2.8,4.8-1.1,10.9,3.7,13.7C257.2,112,263.3,110.4,266.1,105.6z M239.4,91.7
		c1.4-5.3-1.7-10.8-7.1-12.2c-5.3-1.4-10.8,1.7-12.2,7.1c-1.4,5.3,1.7,10.8,7.1,12.2C232.5,100.2,237.9,97,239.4,91.7z"/>
</g>
</svg>
