<svg xmlns="http://www.w3.org/2000/svg" viewBox="0 0 400 400"><defs><style>.a{fill:#bc290e;}.b{fill:#eee;}.c{fill:#035193;}</style></defs><title>senatni-volby</title><path class="a" d="M305,167.14a110.46,110.46,0,0,1-81,140.72l-11.82,67.35C303.1,369,375,293,375,200.21a175,175,0,0,0-17.74-77Z"/><path class="b" d="M176.09,307.86A110.46,110.46,0,0,1,95,167.14l-52.3-43.95a175,175,0,0,0-17.74,77C25,293,96.9,369,187.91,375.21Z"/><path class="c" d="M119,125.64a109.81,109.81,0,0,1,162,0l64.14-23.43a174.8,174.8,0,0,0-290.32,0Z"/></svg>