<svg id="Layer_1" data-name="Layer 1" xmlns="http://www.w3.org/2000/svg" viewBox="0 0 400 400"><title>wikipedia</title><path d="M324,124.12a4,4,0,0,1-.83,2.44,2.35,2.35,0,0,1-1.83,1.09A23.21,23.21,0,0,0,308,132.91c-3.47,3-7,8.66-10.71,17L241,276.76c-.37,1.17-1.4,1.76-3.1,1.76a3.48,3.48,0,0,1-3.1-1.76l-31.56-66-36.29,66a3.49,3.49,0,0,1-3.1,1.76,3.16,3.16,0,0,1-3.21-1.76L105.36,149.94q-5.17-11.81-10.93-16.49t-16-5.8a2.13,2.13,0,0,1-1.65-.94,3.17,3.17,0,0,1-.79-2.14c0-2.07.59-3.09,1.77-3.09,4.93,0,10.07.22,15.46.65q7.5.69,14.11.68t15.9-.68q9.6-.64,17-.65c1.17,0,1.76,1,1.76,3.09s-.37,3.08-1.09,3.08c-4.93.37-8.81,1.64-11.65,3.75a10,10,0,0,0-4.25,8.4,17,17,0,0,0,1.77,6.61L172.47,249.6l25.94-49-24.17-50.67q-6.51-13.55-10.71-17.49c-2.79-2.6-7-4.21-12.69-4.8a1.93,1.93,0,0,1-1.49-.94,3.37,3.37,0,0,1-.72-2.14c0-2.07.5-3.09,1.55-3.09a131.22,131.22,0,0,1,13.57.65,110.5,110.5,0,0,0,12.69.68q6.62,0,14-.68c5.08-.43,10.07-.65,15-.65,1.18,0,1.77,1,1.77,3.09s-.35,3.08-1.09,3.08q-14.79,1-14.79,8.4c0,2.2,1.13,5.63,3.43,10.25l16,32.46,15.9-29.69q3.32-6.28,3.32-10.6,0-10.14-14.79-10.82c-.89,0-1.33-1-1.33-3.08a3.76,3.76,0,0,1,.65-2.09c.46-.68.9-1,1.34-1q5.29,0,13,.65,7.39.69,12.15.68c2.26,0,5.62-.2,10-.57,5.58-.5,10.27-.76,14-.76.88,0,1.31.87,1.31,2.64,0,2.35-.8,3.53-2.42,3.53-5.73.59-10.36,2.18-13.85,4.76s-7.85,8.41-13.06,17.53l-21.2,39.2,28.7,58.48,42.38-98.55a26.65,26.65,0,0,0,2.2-9.92q0-10.83-14.79-11.5c-.89,0-1.33-1-1.33-3.08s.66-3.09,2-3.09q5.4,0,12.8.65c4.56.46,8.4.68,11.48.68a105.75,105.75,0,0,0,11.25-.68q6.64-.64,11.93-.65C323.48,121.48,324,122.35,324,124.12Z"/></svg>